<svg xmlns="http://www.w3.org/2000/svg" version="1.0" width="261.000000pt" height="233.000000pt" viewBox="0 0 261.000000 233.000000" preserveAspectRatio="xMidYMid meet" style="width: 632.315px; height: auto;"> <g transform="translate(0.000000,233.000000) scale(0.100000,-0.100000)" fill="#000000" stroke="none" class=""> <path d="M1313 2050 c-3 -11 -11 -20 -17 -20 -6 0 -13 -14 -14 -32 -2 -18 -7 -35 -11 -38 -15 -9 -24 -77 -16 -125 3 -25 10 -43 15 -40 5 3 12 -10 16 -30 3 -19 9 -35 13 -35 3 0 14 -18 24 -39 14 -29 18 -53 14 -102 -4 -62 -32 -159 -46 -159 -4 0 -8 -11 -9 -25 -1 -15 3 -25 11 -25 23 0 47 39 47 76 0 19 4 33 9 30 12 -8 21 18 21 60 0 21 4 33 10 29 12 -8 13 49 1 73 -5 9 -19 42 -32 72 -13 30 -27 57 -31 58 -5 2 -8 12 -8 22 0 9 -7 23 -15 30 -19 16 -19 67 0 100 8 14 14 35 15 46 0 12 7 24 15 28 9 3 15 18 15 36 0 34 -19 41 -27 10z"/>   <path d="M1611 1915 c-1 -17 -3 -18 -11 -5 -9 13 -13 11 -30 -10 -11 -14 -18 -31 -15 -38 3 -7 0 -10 -5 -7 -11 7 -11 4 -12 -65 -1 -102 2 -120 17 -120 10 0 15 -10 15 -29 0 -16 6 -31 15 -35 11 -4 15 -20 15 -58 0 -63 -9 -100 -21 -92 -5 3 -9 -6 -9 -21 0 -14 -7 -28 -15 -31 -17 -7 -21 -44 -5 -44 6 0 10 5 10 10 0 6 9 10 20 10 14 0 20 7 20 24 0 13 4 26 10 28 12 4 25 138 16 172 -4 15 -11 24 -16 21 -6 -4 -10 6 -10 22 0 15 -7 41 -15 57 -21 40 -20 136 1 136 8 0 13 4 9 9 -3 5 2 16 11 25 8 9 13 26 11 38 -4 20 -4 20 -6 3z"/> <path d="M1030 1871 c0 -30 -4 -41 -15 -41 -22 0 -22 -142 0 -160 8 -7 15 -18 14 -24 -3 -25 2 -36 16 -36 8 0 15 -9 15 -20 0 -11 4 -20 9 -20 13 0 8 -33 -6 -48 -7 -7 -13 -33 -13 -57 0 -24 -4 -45 -9 -47 -15 -5 -17 -61 -3 -65 6 -3 12 2 12 11 0 9 6 16 14 16 9 0 16 19 20 60 4 33 11 60 16 60 6 0 10 25 10 55 0 42 -3 55 -15 55 -8 0 -15 9 -15 19 0 11 -5 23 -10 26 -6 4 -17 22 -25 42 -17 41 -21 118 -5 108 6 -4 9 -3 8 2 -1 4 3 18 10 31 7 12 10 22 7 22 -3 0 -1 9 5 20 6 12 7 20 1 20 -5 0 -16 3 -25 6 -13 5 -16 -2 -16 -35z"/>           <path d="M1187 1213 c-44 -2 -75 -8 -72 -13 3 -5 -17 -12 -45 -16 -27 -4 -50 -10 -50 -15 0 -5 -9 -9 -19 -9 -11 0 -26 -7 -35 -15 -8 -8 -24 -15 -35 -15 -11 0 -26 -7 -35 -15 -8 -8 -19 -15 -25 -15 -6 0 -11 -7 -11 -15 0 -8 -9 -15 -19 -15 -11 0 -26 7 -35 15 -16 17 -36 20 -36 6 0 -11 -66 -51 -84 -51 -7 0 -22 -13 -34 -30 -13 -16 -27 -30 -32 -30 -15 0 -140 -138 -140 -154 0 -4 -7 -14 -15 -22 -8 -9 -15 -24 -15 -35 0 -10 -4 -19 -9 -19 -5 0 -12 -18 -16 -40 -4 -22 -11 -38 -16 -34 -5 3 -9 -21 -9 -55 0 -34 4 -61 9 -61 5 0 12 -12 16 -27 3 -15 10 -30 13 -33 4 -3 12 -14 18 -25 6 -11 23 -26 37 -33 15 -7 27 -17 27 -23 0 -5 12 -9 26 -9 14 0 23 -4 19 -9 -11 -19 134 -22 795 -19 482 2 681 6 695 14 11 7 39 20 62 30 24 11 43 22 43 26 0 4 6 13 13 20 31 31 47 83 47 150 0 39 -4 68 -10 68 -5 0 -10 8 -10 18 0 10 -7 27 -15 38 -8 10 -15 27 -15 36 0 9 -6 21 -12 25 -15 9 -36 41 -44 66 -4 9 -10 17 -14 17 -4 0 -31 24 -61 53 -68 66 -106 97 -119 97 -6 0 -13 7 -16 15 -4 8 -15 15 -25 15 -20 0 -52 15 -82 39 -9 8 -33 14 -52 13 -19 -1 -41 5 -49 13 -8 9 -29 18 -45 21 -17 4 -31 10 -31 14 0 4 -17 11 -37 15 -21 4 -42 10 -48 15 -12 9 -242 18 -348 13z m223 -44 c0 -5 -4 -9 -9 -9 -16 0 -91 -76 -91 -92 0 -9 -7 -18 -15 -22 -8 -3 -15 -12 -15 -20 0 -7 -7 -16 -15 -20 -8 -3 -15 -12 -15 -21 0 -8 -4 -15 -9 -15 -5 0 -13 -10 -16 -22 -4 -13 -13 -38 -22 -56 -8 -19 -12 -45 -9 -58 7 -26 26 -33 26 -10 0 17 43 46 70 46 11 0 20 4 20 9 0 5 8 12 19 16 24 7 101 85 101 102 0 7 5 13 10 13 6 0 10 7 10 16 0 8 10 33 22 54 19 33 21 41 9 52 -11 10 -14 10 -18 0 -3 -7 -11 -19 -19 -26 -8 -8 -14 -19 -14 -24 0 -5 -7 -15 -15 -22 -8 -7 -15 -21 -15 -31 0 -18 -71 -99 -87 -99 -5 0 -17 -10 -27 -21 -12 -14 -21 -18 -28 -11 -11 11 -2 52 13 52 5 0 9 7 9 15 0 9 7 18 15 21 8 4 15 11 15 18 0 6 14 26 30 44 17 18 30 36 30 39 0 3 11 16 25 29 14 13 25 28 25 34 0 5 11 10 25 10 14 0 25 5 25 10 0 6 5 10 10 10 6 0 10 -6 10 -13 0 -8 15 -13 41 -13 23 -1 45 -7 48 -13 4 -6 21 -14 37 -17 16 -3 31 -9 32 -15 2 -5 17 -9 33 -9 16 0 29 -4 29 -9 0 -5 -18 -28 -40 -51 -22 -23 -43 -53 -46 -66 -3 -13 -10 -24 -15 -24 -5 0 -9 -27 -9 -60 0 -33 3 -60 6 -60 3 0 18 8 32 19 15 10 32 20 38 22 40 14 154 125 154 150 0 25 35 18 64 -13 14 -16 29 -28 34 -28 15 0 132 -106 132 -119 0 -4 18 -27 40 -51 22 -24 40 -50 40 -59 0 -9 7 -25 15 -35 11 -14 15 -46 15 -108 0 -77 -2 -89 -20 -100 -11 -7 -20 -18 -20 -25 0 -7 -8 -13 -19 -13 -10 0 -24 -7 -31 -15 -7 -8 -28 -15 -46 -15 -19 0 -34 -4 -34 -10 0 -5 -7 -10 -15 -10 -8 0 -15 5 -15 10 0 6 -7 10 -15 10 -8 0 -15 -4 -15 -10 0 -7 -224 -10 -651 -10 -431 0 -648 3 -644 10 4 6 -15 10 -49 10 -41 0 -56 4 -56 14 0 7 -9 16 -20 19 -11 3 -25 18 -32 34 -7 15 -19 35 -27 43 -10 10 -12 32 -8 89 3 40 10 77 16 80 5 3 13 19 16 34 4 15 11 27 16 27 5 0 9 6 9 13 0 6 14 26 30 44 17 18 30 34 30 37 0 9 41 48 90 85 25 19 47 37 50 40 23 27 120 54 120 33 0 -4 11 -19 24 -33 13 -14 27 -35 30 -47 4 -12 12 -22 17 -22 5 0 9 -10 9 -21 0 -12 10 -31 23 -43 l23 -22 20 24 c10 13 27 32 37 44 9 12 17 33 17 48 0 16 7 30 15 34 8 3 15 14 15 25 0 11 7 24 16 29 13 7 12 11 -10 25 -24 16 -26 16 -36 -2 -5 -11 -10 -31 -10 -45 0 -14 -4 -26 -10 -26 -5 0 -10 -7 -10 -15 0 -23 -30 -65 -46 -65 -8 0 -14 10 -14 25 0 14 -7 28 -15 31 -8 4 -15 10 -15 16 0 5 -11 21 -24 35 -28 30 -25 43 10 43 13 0 24 4 24 9 0 5 14 11 31 15 17 3 28 10 25 15 -3 4 17 11 44 15 27 4 52 11 55 15 3 5 28 12 55 16 28 4 50 11 50 16 0 8 166 17 208 10 12 -2 22 -7 22 -12z m391 -124 c-3 -23 -86 -105 -131 -132 -23 -13 -32 -15 -42 -5 -9 9 -8 12 5 12 10 0 17 8 17 20 0 11 7 23 15 26 8 4 15 12 15 19 0 7 15 29 33 49 25 28 39 36 62 34 24 -2 29 -7 26 -23z" class=""/>                                                </g> </svg>