<svg version="1.0" xmlns="http://www.w3.org/2000/svg" width="256.000000pt" height="254.000000pt" viewBox="0 0 256.000000 254.000000" preserveAspectRatio="xMidYMid meet" style="width: 202.801px; height: auto;"> <g transform="translate(0.000000,254.000000) scale(0.100000,-0.100000)" fill="#000000" stroke="none"> <path d="M1340 2281 c0 -6 4 -13 10 -16 6 -3 7 1 4 9 -7 18 -14 21 -14 7z"></path> <path d="M1190 2236 c-236 -71 -412 -192 -553 -381 -226 -301 -264 -690 -103 -1030 129 -270 370 -468 673 -553 90 -24 113 -27 273 -27 160 0 183 3 273 27 233 65 443 205 574 382 63 86 57 93 -38 45 -416 -209 -962 -16 -1198 423 -79 145 -112 278 -112 445 0 240 81 440 248 614 35 36 60 69 56 72 -8 9 -5 9 -93 -17z m23 -30 c-10 -13 -24 -21 -31 -19 -8 3 -10 0 -6 -10 3 -8 2 -17 -3 -20 -4 -3 -8 8 -8 23 -1 16 3 26 7 24 4 -3 18 2 30 10 30 21 32 20 11 -8z m-109 -88 c-232 -312 -240 -748 -20 -1087 30 -47 50 -69 60 -65 8 3 17 1 21 -5 3 -7 0 -8 -9 -5 -33 13 -13 -15 67 -93 187 -181 413 -285 657 -300 107 -6 254 15 327 47 39 17 63 40 27 26 -9 -3 -12 -2 -9 5 4 5 12 8 18 6 6 -2 19 5 30 16 24 24 36 14 14 -11 -10 -10 -14 -22 -10 -27 5 -4 2 -5 -4 -1 -8 4 -13 2 -13 -5 0 -7 -3 -10 -6 -6 -4 3 -36 -21 -73 -54 -199 -181 -419 -275 -671 -286 -529 -24 -976 351 -1041 874 -23 181 9 359 97 538 100 207 265 357 509 467 33 14 63 27 67 27 5 1 -13 -27 -38 -61z m-64 -183 c-7 -9 -15 -13 -17 -11 -7 7 7 26 19 26 6 0 6 -6 -2 -15z m-21 -37 c0 -7 -4 -22 -8 -32 -6 -15 -10 -16 -16 -7 -4 8 -2 16 5 21 7 4 9 13 6 19 -4 6 -2 11 3 11 6 0 11 -6 10 -12z m-58 -352 c-10 -11 -10 -20 -1 -36 6 -12 9 -24 6 -27 -8 -9 -28 48 -22 64 3 7 11 13 17 13 8 0 8 -4 0 -14z m58 -330 c7 -8 8 -17 3 -20 -6 -3 -12 3 -15 14 -6 24 -4 25 12 6z m69 -151 c-3 -3 -9 2 -12 12 -6 14 -5 15 5 6 7 -7 10 -15 7 -18z m328 -318 c8 3 14 0 14 -6 0 -13 -20 -14 -39 -2 -8 6 -10 14 -5 22 7 11 9 11 12 -3 2 -10 9 -15 18 -11z m359 -147 c3 -5 -3 -10 -15 -10 -12 0 -18 5 -15 10 3 6 10 10 15 10 5 0 12 -4 15 -10z m48 -3 c20 4 20 3 4 -7 -19 -12 -37 -6 -36 13 0 9 2 9 5 1 3 -7 15 -10 27 -7z m362 -77 c-3 -5 -12 -10 -18 -10 -7 0 -6 4 3 10 19 12 23 12 15 0z m-41 -35 c-25 -19 -38 -19 -22 0 7 8 19 14 27 15 11 0 9 -4 -5 -15z m-45 -36 c-16 -10 -23 -4 -14 10 3 6 11 8 17 5 6 -4 5 -9 -3 -15z m-29 -13 c0 -2 -8 -10 -17 -17 -16 -13 -17 -12 -4 4 13 16 21 21 21 13z m-150 -90 c0 -2 -7 -7 -16 -10 -8 -3 -12 -2 -9 4 6 10 25 14 25 6z" class=""></path> <path d="M1786 2064 c-14 -31 -24 -59 -21 -63 2 -4 -4 -7 -13 -7 -57 0 -99 -6 -112 -14 -12 -8 -7 -18 30 -53 37 -36 45 -50 45 -79 0 -20 -3 -34 -6 -32 -4 2 -9 -10 -11 -27 -3 -16 -1 -32 4 -35 5 -3 34 7 64 23 l54 28 53 -27 c83 -44 83 -44 56 64 -9 35 -8 38 37 81 50 47 52 67 5 67 -74 0 -90 9 -117 71 -15 33 -30 59 -35 59 -4 0 -19 -25 -33 -56z m33 -1 c-12 -15 -12 -16 3 -10 13 4 15 2 11 -10 -5 -12 -3 -14 6 -8 10 5 11 2 7 -12 -12 -36 17 -58 77 -58 30 0 53 -3 50 -7 -2 -5 -9 -8 -14 -8 -20 0 -69 -59 -69 -82 0 -13 7 -35 14 -50 l15 -28 -49 25 -49 25 -45 -22 c-25 -12 -43 -25 -40 -30 3 -4 -2 -5 -11 -2 -14 6 -14 7 0 18 10 7 17 29 18 56 2 37 -1 45 -15 44 -10 -1 -14 4 -11 13 4 10 0 13 -13 11 -11 -2 -20 4 -22 15 -3 13 3 17 27 17 61 0 91 26 96 85 1 13 15 35 22 35 3 0 -1 -8 -8 -17z"></path> <path d="M2259 1396 c-25 -56 -41 -66 -105 -66 -12 0 -26 -5 -30 -11 -7 -12 64 -89 83 -89 7 0 13 -4 13 -10 0 -5 -6 -7 -14 -4 -10 4 -16 -8 -21 -46 -4 -28 -4 -54 0 -58 3 -3 29 6 57 22 l51 29 53 -29 c29 -16 55 -26 58 -23 3 3 0 31 -6 63 l-12 57 42 40 c52 47 47 64 -15 55 -28 -4 -42 -2 -38 4 3 6 -1 10 -10 10 -9 0 -27 23 -42 55 -15 30 -30 55 -34 55 -4 0 -17 -24 -30 -54z m47 -12 c-3 -7 0 -26 7 -43 11 -31 56 -48 92 -35 15 6 15 4 4 -14 -7 -11 -23 -26 -36 -33 -13 -7 -23 -17 -23 -23 0 -27 22 -86 32 -86 6 0 8 -3 5 -7 -4 -3 -17 3 -30 14 -43 39 -63 45 -96 25 -17 -9 -31 -21 -31 -25 0 -5 -4 -5 -10 -2 -5 3 -10 1 -10 -5 0 -6 -5 -8 -12 -4 -8 5 -6 11 6 19 9 7 19 28 23 47 5 31 1 38 -28 59 -19 13 -37 24 -41 24 -3 0 -10 4 -15 8 -4 5 9 6 29 2 21 -4 48 -5 60 -1 24 5 54 58 44 75 -4 5 -2 12 4 16 6 4 7 12 3 18 -4 7 1 6 11 -2 9 -8 15 -20 12 -27z" class=""></path> <path d="M2285 1390 c-3 -5 -1 -10 4 -10 6 0 11 5 11 10 0 6 -2 10 -4 10 -3 0 -8 -4 -11 -10z"></path> </g> </svg>