<svg version="1.0" xmlns="http://www.w3.org/2000/svg" width="206.000000pt" height="166.000000pt" viewBox="0 0 206.000000 166.000000" preserveAspectRatio="xMidYMid meet" style="width: 159.347px; height: auto;"> <g transform="translate(0.000000,166.000000) scale(0.100000,-0.100000)" fill="#000000" stroke="none" class=""> <path d="M1055 1400 c-5 -8 -10 -99 -10 -202 -1 -164 1 -188 14 -188 14 0 16 18 13 132 -4 245 -6 274 -17 258z"></path> <path d="M705 1210 c-8 -13 4 -50 16 -50 5 0 9 -7 9 -15 0 -8 4 -15 8 -15 4 0 13 -14 19 -31 15 -40 86 -159 95 -159 19 0 10 41 -19 85 -18 27 -36 59 -40 70 -3 11 -16 34 -28 50 -13 17 -26 40 -30 53 -7 23 -20 29 -30 12z" class=""></path> <path d="M1349 1128 c-24 -46 -48 -90 -54 -99 -41 -66 -45 -77 -29 -83 9 -4 19 4 27 22 6 15 25 50 42 77 17 28 37 64 45 80 8 17 21 34 27 38 7 4 13 17 13 27 0 42 -28 17 -71 -62z"></path>        <path d="M1005 884 c-21 -5 -33 -10 -100 -39 -51 -23 -137 -109 -160 -160 -9 -22 -22 -50 -27 -62 -6 -12 -11 -53 -12 -91 l0 -69 -66 -12 c-212 -38 -317 -64 -310 -77 7 -13 60 -6 235 32 193 42 632 54 845 23 147 -21 275 -47 324 -65 31 -12 41 -13 47 -3 4 7 6 16 4 20 -7 10 -109 35 -246 60 l-126 23 5 44 c5 44 -15 149 -30 158 -4 3 -8 12 -8 19 0 35 -108 139 -176 170 -52 24 -158 39 -199 29z m124 -35 c108 -35 195 -105 232 -187 12 -28 23 -78 26 -126 l6 -79 -24 7 c-71 23 -493 26 -569 6 -66 -18 -70 -16 -70 42 0 51 10 92 38 157 15 36 98 131 114 131 5 0 21 8 35 18 56 36 151 50 212 31z" class=""></path>              <path d="M345 870 c-7 -12 41 -42 115 -72 30 -12 69 -30 85 -40 71 -42 95 -52 106 -41 7 7 -3 18 -33 36 -52 30 -216 107 -229 107 -5 0 -9 5 -9 10 0 13 -27 13 -35 0z" class=""></path>  <path d="M1750 871 c-51 -27 -61 -31 -75 -31 -8 0 -15 -3 -15 -7 0 -9 -49 -33 -67 -33 -7 0 -13 -3 -13 -8 0 -7 -27 -21 -82 -41 -26 -10 -40 -41 -19 -41 5 0 75 32 155 71 105 51 143 74 139 85 -3 8 -6 14 -7 13 0 0 -8 -4 -16 -8z" class=""></path>                            </g> </svg>