<?xml version="1.0" standalone="no"?>
<!DOCTYPE svg PUBLIC "-//W3C//DTD SVG 20010904//EN"
 "http://www.w3.org/TR/2001/REC-SVG-20010904/DTD/svg10.dtd">
<svg version="1.0" xmlns="http://www.w3.org/2000/svg"
 width="267.000000pt" height="286.000000pt" viewBox="0 0 267.000000 286.000000"
 preserveAspectRatio="xMidYMid meet">
<g transform="translate(0.000000,286.000000) scale(0.100000,-0.100000)"
fill="#000000" stroke="none">
<path d="M895 2620 c-116 -18 -225 -80 -313 -175 -64 -70 -128 -184 -118 -210
3 -9 2 -14 -3 -11 -27 17 -40 -195 -17 -283 53 -208 215 -375 413 -426 175
-46 378 4 516 126 61 53 63 74 5 62 -178 -35 -353 22 -467 153 -45 51 -94 60
-57 11 8 -10 19 -16 26 -15 7 2 15 -4 17 -12 4 -13 3 -13 -6 0 -6 8 -11 10
-11 5 0 -6 17 -27 38 -47 97 -92 210 -140 332 -141 43 -1 85 5 99 12 18 10 25
10 35 0 8 -9 7 -11 -7 -6 -10 4 -16 3 -13 -2 3 -5 0 -14 -8 -20 -10 -9 -15 -9
-18 -1 -2 7 -25 -3 -57 -24 -29 -20 -60 -36 -68 -36 -8 0 -12 -4 -9 -8 2 -4
-3 -8 -12 -9 -9 0 -51 -8 -92 -18 -82 -19 -171 -15 -252 9 -32 10 -48 11 -50
4 -3 -7 -14 -5 -33 5 -17 9 -26 16 -22 17 5 0 17 -5 28 -10 10 -6 19 -7 19 -2
0 13 -70 43 -83 36 -7 -4 -9 -4 -5 1 9 9 -9 35 -24 35 -6 0 -4 -8 3 -17 13
-16 12 -17 -4 -4 -9 8 -15 16 -12 19 3 3 -19 31 -49 61 -62 64 -120 170 -137
250 -16 79 -7 223 19 295 17 47 19 62 9 69 -8 6 -7 7 5 4 11 -4 23 4 36 26 64
110 211 215 323 233 21 4 38 9 37 13 -2 18 4 22 17 11 15 -13 11 -35 -5 -25
-14 9 -90 -93 -121 -163 -58 -128 -62 -278 -13 -411 14 -39 30 -69 34 -66 4 3
7 -3 6 -12 0 -10 7 -17 22 -18 12 -1 21 1 19 4 -24 44 -57 128 -67 172 -17 76
-8 209 18 283 12 32 19 63 15 69 -3 6 -1 7 4 4 6 -4 25 15 42 42 30 46 89 105
114 114 6 2 8 11 4 20 -7 18 -22 19 -102 7z m75 -9 c0 -6 -10 -20 -22 -33 -13
-13 -17 -17 -11 -8 10 13 10 19 0 30 -10 10 -9 12 6 7 9 -4 17 -2 17 3 0 6 2
10 5 10 3 0 5 -4 5 -9z m-160 -37 c0 -8 -19 -13 -24 -6 -3 5 1 9 9 9 8 0 15
-2 15 -3z m-40 -18 c0 -2 -9 -6 -20 -9 -11 -3 -18 -1 -14 4 5 9 34 13 34 5z
m-199 -149 c-10 -9 -11 -8 -5 6 3 10 9 15 12 12 3 -3 0 -11 -7 -18z m232 -42
c-3 -9 -8 -14 -10 -11 -3 3 -2 9 2 15 9 16 15 13 8 -4z m-16 -57 c-3 -7 -5 -2
-5 12 0 14 2 19 5 13 2 -7 2 -19 0 -25z m-20 -80 c-3 -8 -6 -5 -6 6 -1 11 2
17 5 13 3 -3 4 -12 1 -19z m-310 -140 c-3 -7 -5 -2 -5 12 0 14 2 19 5 13 2 -7
2 -19 0 -25z m41 -243 c-3 -3 -9 2 -12 12 -6 14 -5 15 5 6 7 -7 10 -15 7 -18z
m527 -103 c-4 -5 -75 37 -75 44 0 3 18 -6 39 -18 22 -12 38 -24 36 -26z m-485
18 c6 -11 8 -20 6 -20 -3 0 -10 9 -16 20 -6 11 -8 20 -6 20 3 0 10 -9 16 -20z
m540 -40 c8 -5 11 -10 5 -10 -5 0 -17 5 -25 10 -8 5 -10 10 -5 10 6 0 17 -5
25 -10z m-478 -25 c2 3 5 -2 5 -10 0 -19 0 -19 -23 7 -12 14 -13 18 -3 10 9
-6 18 -10 21 -7z m798 -5 c0 -5 -2 -10 -4 -10 -3 0 -8 5 -11 10 -3 6 -1 10 4
10 6 0 11 -4 11 -10z m-164 -18 c-16 -2 -32 0 -37 5 -5 5 7 7 29 4 34 -5 35
-6 8 -9z m-595 -19 c13 -16 12 -17 -3 -4 -10 7 -18 15 -18 17 0 8 8 3 21 -13z
m685 -28 c-1 -8 -5 -17 -8 -21 -5 -4 -4 16 1 34 3 9 9 -1 7 -13z"/>
<path d="M1582 2510 c-14 -34 -22 -40 -47 -40 -16 0 -37 -5 -45 -10 -13 -9
-10 -15 16 -39 29 -26 31 -33 26 -76 l-5 -48 40 23 c38 21 42 21 71 6 47 -24
53 -21 46 25 -6 35 -3 44 22 70 24 25 26 31 14 39 -8 5 -27 10 -42 10 -22 0
-32 8 -48 40 -11 22 -23 40 -26 40 -3 0 -13 -18 -22 -40z m34 -27 c2 -14 9
-30 16 -34 18 -12 48 -11 48 1 0 6 5 10 11 10 5 0 7 -5 3 -12 -5 -8 -1 -9 12
-4 14 5 16 4 8 -4 -6 -6 -20 -13 -30 -14 -10 -2 -24 -12 -31 -23 -12 -18 -12
-23 2 -37 19 -19 3 -21 -25 -3 -17 10 -26 9 -50 -5 -17 -10 -32 -13 -35 -7 -4
5 -1 9 5 9 7 0 9 7 6 16 -3 8 -2 12 4 9 6 -3 10 1 10 9 0 16 -33 39 -43 30 -3
-3 -10 5 -17 18 -11 22 -10 22 4 4 9 -11 16 -15 16 -9 0 6 9 9 22 5 14 -3 19
-1 14 6 -4 8 -2 10 7 6 10 -3 18 5 25 25 6 16 8 32 6 35 -2 3 -1 4 3 1 3 -3 8
-17 9 -32z"/>
<path d="M1730 2416 c0 -2 8 -10 18 -17 15 -13 16 -12 3 4 -13 16 -21 21 -21
13z"/>
<path d="M2042 2096 c-10 -28 -19 -35 -50 -41 -54 -10 -56 -14 -26 -46 15 -15
30 -26 35 -24 4 3 2 -10 -3 -29 -15 -48 -5 -70 24 -55 13 7 27 18 31 25 4 8
13 14 18 14 6 0 8 -4 5 -8 -6 -9 63 -46 71 -38 10 10 -9 86 -19 79 -7 -3 -8
-1 -4 6 4 6 11 9 15 7 9 -6 51 39 51 53 0 5 -17 12 -38 16 -32 5 -42 13 -55
41 -21 43 -40 43 -55 0z m38 4 c0 -5 -2 -10 -4 -10 -3 0 -8 5 -11 10 -3 6 -1
10 4 10 6 0 11 -4 11 -10z m5 -51 c6 -16 13 -19 47 -15 22 2 37 1 33 -2 -4 -4
-8 -5 -10 -2 -1 3 -12 -4 -24 -14 -22 -20 -29 -76 -10 -76 5 0 7 -5 4 -10 -4
-7 -14 -3 -25 10 -22 26 -26 25 -67 -6 -25 -19 -33 -21 -33 -10 0 8 7 19 16
24 22 12 11 67 -11 58 -9 -3 -12 0 -8 10 4 10 0 12 -13 7 -17 -6 -18 -5 -4 11
8 11 16 14 18 7 2 -6 14 -11 27 -11 25 0 42 30 29 52 -6 10 -3 9 9 0 9 -8 19
-23 22 -33z"/>
<path d="M1280 1353 c-232 -13 -481 -87 -635 -189 -49 -33 -58 -36 -81 -26
-14 7 -45 12 -70 12 -37 0 -51 -6 -75 -29 -52 -52 -30 -149 41 -186 21 -11 30
-21 26 -31 -14 -36 -45 -216 -52 -294 l-7 -85 -48 -47 c-41 -39 -49 -53 -49
-83 0 -72 43 -115 115 -115 19 0 69 18 120 44 l88 44 31 -19 c77 -45 135 -50
670 -60 564 -11 648 -6 779 46 l67 27 37 -30 c114 -89 211 -87 249 5 19 45 7
86 -46 146 -32 36 -40 53 -40 84 0 40 -26 267 -36 316 -4 17 -1 27 6 27 7 0
27 7 46 16 68 32 85 119 36 172 -36 38 -74 48 -126 34 -38 -10 -44 -9 -84 19
-136 97 -429 177 -724 198 -81 6 -155 10 -165 9 -10 -1 -43 -3 -73 -5z m295
-23 c-4 -6 3 -9 16 -7 12 1 24 -5 27 -13 4 -13 3 -13 -10 -2 -10 8 -17 9 -20
3 -2 -6 -9 -7 -17 -2 -12 8 -8 31 5 31 3 0 2 -4 -1 -10z m-25 -8 c0 -5 -14 -9
-32 -10 -23 -1 -28 2 -18 8 19 12 50 13 50 2z m107 2 c-3 -3 -12 -4 -19 -1 -8
3 -5 6 6 6 11 1 17 -2 13 -5z m-21 -39 c273 -36 497 -109 603 -199 41 -35 45
-36 67 -21 48 31 124 9 124 -37 0 -22 -43 -68 -63 -68 -8 0 -17 9 -20 20 -3
12 -14 20 -26 20 -26 0 -26 -7 -1 -185 11 -77 20 -176 20 -221 l0 -81 51 -58
c41 -47 50 -63 47 -89 -2 -23 -10 -33 -29 -40 -36 -12 -68 -2 -125 39 -84 60
-86 61 -146 31 -116 -57 -157 -60 -683 -58 -501 3 -612 10 -704 43 -67 24 -86
25 -107 5 -8 -9 -20 -16 -26 -16 -6 0 -19 -6 -27 -14 -9 -8 -23 -16 -31 -18
-8 -2 -19 -8 -25 -14 -15 -18 -63 -26 -71 -12 -5 7 -2 9 9 5 8 -3 21 1 27 8 7
8 16 12 21 9 5 -3 12 2 15 10 3 9 10 13 15 10 5 -3 21 4 35 15 15 11 30 18 35
15 5 -3 9 -1 9 5 0 10 25 21 63 26 12 2 86 17 164 34 168 35 399 54 597 49 96
-2 140 0 143 8 6 18 -222 26 -402 14 -280 -18 -487 -62 -610 -129 -38 -21 -89
-44 -112 -51 -36 -11 -46 -11 -68 4 -15 10 -25 26 -25 39 0 24 47 75 88 96 20
11 22 19 22 94 0 99 20 221 57 340 23 75 24 90 12 98 -21 13 -27 11 -42 -17
l-13 -26 -32 27 c-37 31 -41 64 -12 90 21 19 51 17 105 -5 28 -12 35 -10 103
35 130 84 323 152 488 174 111 14 361 12 480 -4z m-691 -15 c-3 -5 -13 -10
-21 -10 -8 0 -12 5 -9 10 3 6 13 10 21 10 8 0 12 -4 9 -10z m-45 -21 c0 -13
-29 -17 -38 -6 -8 9 -4 12 14 12 13 0 24 -3 24 -6z m-50 -19 c0 -4 -6 -10 -14
-13 -10 -4 -12 0 -9 14 5 18 23 18 23 -1z m1164 4 c4 -9 4 -19 1 -22 -3 -3 -5
0 -5 7 0 7 -7 11 -15 8 -8 -4 -17 -2 -20 3 -3 4 1 11 7 13 22 9 26 8 32 -9z
m-1207 -26 c-3 -8 -6 -5 -6 6 -1 11 2 17 5 13 3 -3 4 -12 1 -19z m-20 -3 c0
-8 -4 -12 -9 -9 -5 3 -18 -2 -29 -12 -16 -14 -22 -15 -32 -5 -10 11 -9 13 3 9
8 -2 23 4 34 14 24 22 33 23 33 3z m1368 -24 c3 -5 2 -12 -3 -15 -5 -3 -9 1
-9 9 0 17 3 19 12 6z m-1455 -21 c0 -5 -2 -10 -4 -10 -3 0 -8 5 -11 10 -3 6
-1 10 4 10 6 0 11 -4 11 -10z m-40 -20 c0 -5 -4 -10 -10 -10 -5 0 -10 5 -10
10 0 6 5 10 10 10 6 0 10 -4 10 -10z m-104 -25 c-11 -8 -22 -12 -25 -9 -6 6
19 24 34 24 6 -1 1 -7 -9 -15z m74 -1 c0 -8 -19 -13 -24 -6 -3 5 1 9 9 9 8 0
15 -2 15 -3z m1798 -18 c13 -14 18 -27 13 -31 -6 -3 -15 4 -21 15 -8 15 -17
19 -31 15 -21 -7 -27 10 -6 18 19 8 21 8 45 -17z m-1848 4 c0 -5 -5 -10 -11
-10 -5 0 -7 5 -4 10 3 6 8 10 11 10 2 0 4 -4 4 -10z m1730 -4 c0 -3 -4 -8 -10
-11 -5 -3 -10 -1 -10 4 0 6 5 11 10 11 6 0 10 -2 10 -4z m-1868 -94 c6 -7 8
-15 5 -18 -3 -3 -10 4 -17 15 -6 12 -16 18 -22 15 -6 -4 -9 -3 -6 2 3 5 9 18
13 29 8 19 9 18 13 -5 2 -14 9 -31 14 -38z m85 -46 c-11 -8 -14 -15 -7 -18 6
-2 8 -11 4 -22 -6 -17 -8 -16 -20 5 -11 21 -10 25 9 36 29 16 36 16 14 -1z
m1878 -6 c-3 -5 -12 -10 -18 -10 -7 0 -6 4 3 10 19 12 23 12 15 0z m-49 -18
c1 -7 0 -8 -3 -2 -8 17 -23 11 -17 -7 5 -15 4 -15 -4 -3 -6 8 -8 18 -5 23 7
11 26 4 29 -11z m14 -196 c0 -3 -4 -8 -10 -11 -5 -3 -10 -1 -10 4 0 6 5 11 10
11 6 0 10 -2 10 -4z m-1892 -58 c-2 -6 -10 -13 -16 -14 -9 -2 -9 -1 -1 3 8 4
7 8 -2 14 -11 7 -10 9 4 9 10 0 17 -5 15 -12z m1889 -10 c-3 -8 -6 -5 -6 6 -1
11 2 17 5 13 3 -3 4 -12 1 -19z m-1890 -24 c-3 -3 -12 -4 -19 -1 -8 3 -5 6 6
6 11 1 17 -2 13 -5z m1908 -134 c10 -11 16 -20 13 -20 -3 0 -13 9 -23 20 -10
11 -16 20 -13 20 3 0 13 -9 23 -20z m-1925 -4 c0 -2 -7 -9 -15 -16 -13 -11
-14 -10 -9 4 5 14 24 23 24 12z m-45 -36 c-3 -5 -16 -15 -28 -21 -21 -10 -21
-9 2 10 25 23 36 27 26 11z m2041 -46 c-3 -8 0 -14 7 -14 7 0 12 -11 12 -25 0
-25 -9 -33 -19 -16 -11 17 -15 81 -5 75 6 -3 8 -12 5 -20z m-240 -40 c18 -15
18 -15 -2 -5 -12 6 -24 7 -28 4 -3 -3 -6 -1 -6 5 0 16 12 15 36 -4z m-1475
-31 c13 -16 12 -17 -3 -4 -10 7 -18 15 -18 17 0 8 8 3 21 -13z m109 -23 c18
-12 2 -12 -25 0 -13 6 -15 9 -5 9 8 0 22 -4 30 -9z m190 -9 c0 -10 -24 -21
-43 -21 -7 0 -3 7 7 15 22 17 36 19 36 6z m100 -13 c0 -13 -23 -5 -28 10 -2 7
2 10 12 6 9 -3 16 -11 16 -16z m1170 6 c0 -14 -3 -14 -15 -4 -8 7 -15 14 -15
16 0 2 7 4 15 4 8 0 15 -7 15 -16z m-1900 2 c0 -3 -4 -8 -10 -11 -5 -3 -10 -1
-10 4 0 6 5 11 10 11 6 0 10 -2 10 -4z m40 -11 c0 -9 -6 -12 -15 -9 -8 4 -15
10 -15 15 0 5 7 9 15 9 8 0 15 -7 15 -15z m1227 -1 c2 -5 -13 -9 -32 -9 -39
-1 -47 11 -12 18 28 5 40 3 44 -9z m39 -11 c-10 -10 -19 5 -10 18 6 11 8 11
12 0 2 -7 1 -15 -2 -18z m44 23 c0 -3 -4 -8 -10 -11 -5 -3 -10 -1 -10 4 0 6 5
11 10 11 6 0 10 -2 10 -4z m596 -24 c-4 -3 -14 2 -24 12 -16 18 -16 18 6 6 13
-6 21 -14 18 -18z"/>
<path d="M476 1027 c3 -10 9 -15 12 -12 3 3 0 11 -7 18 -10 9 -11 8 -5 -6z"/>
<path d="M616 1023 c-6 -14 -5 -15 5 -6 7 7 10 15 7 18 -3 3 -9 -2 -12 -12z"/>
<path d="M2369 1003 c-13 -16 -12 -17 4 -4 9 7 17 15 17 17 0 8 -8 3 -21 -13z"/>
<path d="M1620 516 c0 -8 71 -12 76 -4 3 4 -13 8 -35 8 -23 0 -41 -2 -41 -4z"/>
<path d="M1714 503 c3 -4 26 -8 49 -9 23 -1 68 -5 100 -9 83 -11 58 -29 -30
-22 -37 4 -106 8 -153 10 -70 4 -76 3 -35 -4 41 -7 267 -28 271 -25 1 1 4 11
8 22 6 20 1 22 -82 33 -102 13 -138 14 -128 4z"/>
<path d="M1428 473 c6 -2 18 -2 25 0 6 3 1 5 -13 5 -14 0 -19 -2 -12 -5z"/>
<path d="M1953 473 c9 -2 25 -2 35 0 9 3 1 5 -18 5 -19 0 -27 -2 -17 -5z"/>
<path d="M1133 463 c15 -2 37 -2 50 0 12 2 0 4 -28 4 -27 0 -38 -2 -22 -4z"/>
<path d="M2020 463 c0 -5 14 -9 31 -10 38 -3 46 -10 31 -25 -10 -10 -20 -9
-45 1 -28 11 -128 27 -102 16 30 -13 154 -43 153 -37 -1 4 2 15 6 24 6 13 13
15 32 8 13 -5 24 -6 24 -1 0 4 -26 13 -57 20 -67 13 -73 13 -73 4z"/>
<path d="M1028 453 c6 -2 18 -2 25 0 6 3 1 5 -13 5 -14 0 -19 -2 -12 -5z"/>
<path d="M898 373 c7 -3 16 -2 19 1 4 3 -2 6 -13 5 -11 0 -14 -3 -6 -6z"/>
<path d="M1007 369 c7 -7 15 -10 18 -7 3 3 -2 9 -12 12 -14 6 -15 5 -6 -5z"/>
<path d="M436 358 c3 -5 10 -6 15 -3 13 9 11 12 -6 12 -8 0 -12 -4 -9 -9z"/>
<path d="M1058 363 c6 -2 18 -2 25 0 6 3 1 5 -13 5 -14 0 -19 -2 -12 -5z"/>
<path d="M1303 363 c15 -2 39 -2 55 0 15 2 2 4 -28 4 -30 0 -43 -2 -27 -4z"/>
<path d="M1398 363 c7 -3 16 -2 19 1 4 3 -2 6 -13 5 -11 0 -14 -3 -6 -6z"/>
</g>
</svg>
