<svg version="1.0" xmlns="http://www.w3.org/2000/svg" width="228.000000pt" height="200.000000pt" viewBox="0 0 228.000000 200.000000" preserveAspectRatio="xMidYMid meet" style="width: 158.282px; height: auto;"> <g transform="translate(0.000000,200.000000) scale(0.100000,-0.100000)" fill="#000000" stroke="none" class=""> <path d="M1100 1645 c1 -91 5 -165 10 -165 13 0 15 37 12 188 -2 84 -7 142 -13 142 -6 0 -9 -62 -9 -165z"></path> <path d="M576 1574 c-7 -19 0 -34 19 -34 7 0 15 -7 19 -15 3 -8 15 -15 26 -15 12 0 18 -5 15 -10 -9 -14 102 -120 125 -120 11 0 20 5 20 10 0 6 -3 10 -8 10 -6 0 -70 60 -129 122 -12 13 -28 28 -35 33 -7 6 -21 16 -29 23 -14 10 -18 10 -23 -4z"></path> <path d="M1542 1482 c-56 -54 -102 -103 -102 -110 0 -27 30 -7 115 78 50 50 98 93 108 96 14 4 16 9 6 20 -6 8 -14 14 -18 14 -4 0 -53 -44 -109 -98z"></path>    <path d="M1030 1402 c-43 -14 -150 -70 -160 -84 -3 -4 -19 -24 -35 -44 -52 -65 -74 -113 -90 -196 -16 -84 -12 -115 21 -180 8 -14 14 -33 14 -42 0 -9 5 -16 10 -16 6 0 10 -6 10 -12 1 -19 60 -79 106 -108 67 -43 83 -50 119 -50 19 0 35 -5 35 -11 0 -7 18 -9 53 -5 110 12 147 18 147 27 0 5 5 9 11 9 10 0 29 13 86 60 7 6 15 10 19 10 22 0 93 127 96 172 1 16 6 32 10 34 12 7 10 152 -2 159 -5 3 -10 15 -10 26 0 10 -4 19 -8 19 -4 0 -13 15 -20 34 -7 18 -20 43 -30 54 -9 12 -26 32 -37 46 -11 14 -25 25 -31 26 -6 0 -17 7 -24 15 -7 8 -21 15 -31 15 -11 0 -19 3 -19 8 0 26 -185 52 -240 34z m146 -33 c3 -5 15 -9 26 -9 29 0 108 -39 115 -56 3 -8 10 -14 17 -14 18 -1 77 -83 98 -136 29 -76 26 -194 -6 -266 -25 -57 -35 -69 -92 -118 -66 -57 -104 -72 -201 -77 -78 -5 -100 -3 -136 13 -23 10 -44 21 -47 24 -3 3 -22 14 -42 25 -21 11 -38 23 -38 26 0 4 -14 22 -31 40 -16 18 -33 45 -36 61 -3 15 -9 28 -14 28 -5 0 -9 18 -9 39 0 22 -5 41 -12 43 -10 4 -10 10 0 32 6 15 12 39 12 54 0 15 8 50 18 78 34 93 111 163 220 204 50 18 149 24 158 9z" class=""></path>     <path d="M1018 753 c7 -3 16 -2 19 1 4 3 -2 6 -13 5 -11 0 -14 -3 -6 -6z"></path>  <path d="M820 1350 c0 -5 5 -10 11 -10 5 0 7 5 4 10 -3 6 -8 10 -11 10 -2 0 -4 -4 -4 -10z" class=""></path> <path d="M1592 1034 c3 -18 14 -19 152 -19 111 0 150 3 154 13 3 9 -29 12 -136 12 -77 0 -148 3 -157 6 -13 5 -16 2 -13 -12z"></path> <path d="M316 1025 c5 -13 31 -15 151 -14 80 0 151 3 159 6 42 16 -4 23 -151 23 -142 0 -164 -2 -159 -15z"></path>  <path d="M1566 715 c-3 -8 -1 -15 4 -15 6 0 10 7 10 15 0 8 -2 15 -4 15 -2 0 -6 -7 -10 -15z"></path> <path d="M735 700 c-4 -14 -27 -44 -51 -67 -24 -23 -44 -44 -44 -47 0 -14 32 -4 47 14 10 11 23 20 30 20 7 0 13 6 13 13 0 6 11 22 25 35 14 14 22 29 18 38 -4 12 -8 12 -13 4 -6 -9 -9 -9 -12 1 -3 9 -8 5 -13 -11z"></path> <path d="M1455 710 c-3 -5 6 -20 21 -32 15 -13 43 -40 63 -60 19 -21 43 -38 53 -38 10 0 18 2 18 5 0 2 -25 30 -55 60 -30 31 -55 61 -55 66 0 12 -37 12 -45 -1z"></path>    <path d="M1213 613 c9 -2 23 -2 30 0 6 3 -1 5 -18 5 -16 0 -22 -2 -12 -5z"></path> <path d="M422 552 c-12 -2 -20 -8 -17 -13 4 -5 1 -9 -6 -9 -9 0 -10 -3 -3 -10 6 -6 126 -10 299 -10 l290 -1 0 23 c0 19 -5 23 -30 22 -68 -3 -298 -4 -400 -2 -60 2 -120 2 -133 0z"></path> <path d="M1099 480 c-4 -189 -1 -240 14 -240 9 0 12 39 12 160 0 121 -3 160 -12 160 -9 0 -13 -23 -14 -80z" class=""></path> <path d="M1788 554 c-3 -3 -128 -5 -277 -5 -264 1 -271 0 -271 -19 0 -20 7 -20 284 -20 156 0 291 3 299 6 14 5 13 8 -1 25 -17 20 -25 23 -34 13z"></path>   <path d="M697 393 c-12 -11 -8 -23 8 -23 8 0 15 -4 15 -9 0 -10 5 -9 58 3 19 5 38 4 45 -2 7 -6 27 -7 47 -3 19 4 49 4 67 -1 25 -7 37 -5 52 9 15 13 17 19 8 25 -15 9 -291 11 -300 1z"></path> <path d="M1220 378 c0 -23 1 -23 148 -23 144 0 184 8 167 34 -3 5 -75 10 -160 10 -155 1 -155 1 -155 -21z"></path>  <path d="M792 300 c0 -14 2 -19 5 -12 2 6 2 18 0 25 -3 6 -5 1 -5 -13z"></path>     </g> </svg>