<?xml version="1.0" standalone="no"?>
<!DOCTYPE svg PUBLIC "-//W3C//DTD SVG 20010904//EN"
 "http://www.w3.org/TR/2001/REC-SVG-20010904/DTD/svg10.dtd">
<svg version="1.0" xmlns="http://www.w3.org/2000/svg"
 width="456.000000pt" height="400.000000pt" viewBox="0 0 456.000000 400.000000"
 preserveAspectRatio="xMidYMid meet">
<g transform="translate(0.000000,400.000000) scale(0.100000,-0.100000)"
fill="#000000" stroke="none">
<path d="M1690 3659 c0 -5 -4 -8 -9 -5 -5 3 -11 -16 -15 -43 -4 -27 -11 -51
-16 -53 -5 -2 -13 -37 -16 -78 -5 -50 -10 -68 -15 -55 -5 13 -8 -3 -9 -45 -1
-45 -4 -57 -9 -40 -6 19 -9 10 -14 -39 -4 -35 -7 -80 -7 -100 0 -24 -3 -31 -9
-23 -5 9 -11 -30 -15 -97 -8 -111 -2 -171 15 -171 5 0 9 -7 9 -15 0 -8 7 -15
15 -15 8 0 15 -4 15 -10 0 -5 11 -12 25 -16 14 -3 25 -10 25 -15 0 -5 7 -9 15
-9 12 0 15 -18 15 -100 0 -85 2 -100 16 -100 14 0 15 15 12 110 -1 61 -1 106
0 100 4 -13 52 -13 52 -1 0 5 13 12 30 16 16 4 28 10 27 13 -1 4 2 8 8 9 16 3
24 36 24 113 1 104 -10 240 -19 235 -5 -3 -11 27 -15 65 -4 39 -11 70 -16 70
-5 0 -9 19 -9 43 0 27 -3 37 -9 29 -5 -9 -11 12 -15 56 -4 39 -11 72 -16 74
-8 3 -17 41 -19 81 -1 10 -5 15 -11 12 -5 -3 -10 -1 -10 4 0 6 -7 11 -15 11
-8 0 -15 -5 -15 -11z m30 -82 c0 -28 3 -37 9 -28 6 9 11 -11 16 -58 4 -39 11
-71 15 -71 5 0 12 -33 16 -72 5 -51 9 -67 15 -53 5 13 8 0 8 -40 1 -39 4 -55
10 -46 6 9 12 -30 16 -103 7 -111 4 -201 -8 -212 -5 -6 -32 -12 -57 -13 -13
-1 -13 -2 0 -11 12 -8 9 -10 -12 -10 -27 0 -28 2 -28 55 0 42 -3 55 -15 55
-12 0 -15 -13 -15 -55 0 -43 -3 -55 -16 -55 -8 0 -13 4 -10 9 4 5 -7 12 -24
16 -17 4 -30 13 -30 21 0 9 -4 13 -9 10 -16 -10 -22 57 -15 169 5 68 10 102
15 90 5 -13 8 5 9 50 2 51 4 63 10 45 7 -23 8 -22 9 10 2 65 14 140 21 135 4
-2 10 24 14 58 3 34 11 64 16 65 6 2 10 16 10 32 0 16 6 31 13 33 6 3 3 6 -8
6 -16 1 -17 3 -5 10 22 15 30 4 30 -42z m127 -619 c-3 -8 -6 -5 -6 6 -1 11 2
17 5 13 3 -3 4 -12 1 -19z"/>
<path d="M1090 3604 c0 -8 -4 -13 -9 -10 -5 3 -12 -16 -16 -44 -4 -27 -11 -50
-15 -50 -4 0 -11 -27 -15 -60 -4 -33 -11 -57 -16 -54 -5 3 -9 -11 -9 -30 0
-20 -4 -36 -9 -36 -5 0 -12 -34 -16 -76 -5 -44 -11 -71 -15 -63 -5 7 -11 -28
-15 -79 -4 -50 -11 -89 -15 -87 -10 6 -24 -213 -17 -265 3 -27 16 -51 41 -76
32 -33 41 -37 93 -38 l58 -1 3 128 c2 108 0 127 -13 127 -13 0 -15 -19 -15
-120 l0 -120 -31 0 c-17 0 -28 4 -24 10 3 6 0 10 -8 10 -19 0 -63 42 -72 69
-4 13 -3 80 1 149 4 74 10 116 14 102 4 -16 9 14 14 78 4 58 12 100 17 97 5
-4 9 15 9 42 0 30 4 43 9 35 5 -8 10 10 15 49 3 35 10 65 15 68 5 3 12 32 16
64 4 31 11 57 16 57 5 0 9 14 9 30 0 17 5 30 13 30 8 0 7 4 -3 10 -13 8 -12
10 3 10 12 0 17 -8 17 -30 0 -16 4 -30 9 -30 5 0 12 -27 16 -60 4 -33 11 -58
15 -55 4 3 11 -27 15 -65 4 -38 11 -67 16 -64 5 3 9 -16 9 -43 0 -31 3 -43 9
-34 6 9 12 -26 17 -95 4 -67 10 -99 14 -84 4 14 10 -28 14 -101 4 -69 4 -138
0 -154 -8 -32 -49 -75 -71 -75 -8 0 -11 -4 -8 -10 3 -6 -5 -10 -19 -10 -14 0
-28 -5 -32 -12 -5 -8 6 -9 41 -5 62 9 115 59 122 117 7 54 -8 300 -17 275 -4
-12 -10 18 -15 78 -4 53 -10 95 -15 92 -4 -2 -11 32 -15 78 -5 57 -10 76 -15
62 -6 -14 -9 -6 -9 30 -1 31 -4 45 -10 37 -5 -9 -10 7 -14 44 -3 31 -10 60
-15 63 -5 3 -12 24 -16 45 -8 39 -26 66 -45 66 -6 0 -11 -7 -11 -16z m24 -20
c3 -8 2 -12 -4 -9 -6 3 -10 10 -10 16 0 14 7 11 14 -7z"/>
<path d="M1186 3597 c3 -10 9 -15 12 -12 3 3 0 11 -7 18 -10 9 -11 8 -5 -6z"/>
<path d="M3430 3329 c0 -11 -4 -17 -10 -14 -5 3 -10 -3 -10 -15 0 -12 -4 -19
-9 -16 -5 3 -12 -23 -16 -59 -3 -36 -10 -63 -15 -60 -5 3 -12 -30 -16 -72 -4
-51 -9 -71 -14 -58 -5 13 -10 -12 -15 -67 -4 -48 -11 -85 -16 -82 -5 3 -9 -18
-9 -46 0 -28 -4 -49 -9 -46 -11 7 -26 -209 -18 -267 3 -23 11 -43 16 -45 6 -2
11 -10 11 -18 0 -8 6 -13 13 -11 6 1 11 -3 10 -10 -1 -6 11 -15 29 -18 22 -5
27 -9 17 -16 -10 -6 -2 -9 23 -9 l37 0 3 -137 c2 -98 6 -138 16 -141 9 -3 12
29 12 137 l0 141 43 0 c31 0 38 3 27 10 -12 8 -10 10 10 10 26 0 60 30 60 53
0 8 3 8 9 -2 15 -23 23 81 16 194 -4 58 -11 102 -16 99 -5 -3 -9 19 -10 48 0
36 -3 47 -8 33 -5 -13 -10 7 -15 63 -4 45 -11 80 -16 77 -4 -3 -11 29 -15 71
-5 48 -11 71 -16 63 -6 -9 -9 2 -9 31 0 30 -3 40 -9 31 -6 -9 -11 7 -16 48 -4
33 -11 58 -16 55 -5 -3 -9 4 -9 15 0 30 -11 51 -26 51 -8 0 -14 -9 -14 -21z
m16 -47 c7 -4 15 -33 19 -64 4 -32 11 -56 15 -53 4 3 11 -24 15 -60 3 -36 11
-63 16 -60 5 4 9 -12 9 -35 0 -23 4 -39 9 -35 6 3 13 -31 17 -77 4 -50 10 -75
14 -63 7 20 19 -77 21 -165 0 -34 2 -40 9 -25 6 14 9 -5 9 -58 1 -43 -3 -76
-8 -73 -5 3 -11 -8 -14 -24 -5 -21 -14 -31 -32 -36 -14 -3 -25 -10 -25 -14 0
-4 -13 -10 -30 -12 l-30 -5 0 114 c0 94 -3 113 -15 113 -12 0 -15 -20 -15
-116 0 -74 4 -113 10 -109 6 3 10 -2 10 -11 0 -16 -1 -16 -18 -1 -10 10 -26
17 -35 17 -9 0 -17 4 -17 10 0 5 -11 12 -24 16 -17 4 -27 15 -31 35 -4 16 -11
27 -16 23 -5 -3 -9 36 -8 93 1 61 4 87 8 68 5 -21 10 8 15 90 6 77 11 113 17
100 6 -16 8 -13 8 15 2 64 14 140 22 135 4 -3 10 29 14 71 5 48 11 71 16 63 6
-9 9 2 9 31 0 35 3 42 11 30 8 -11 9 -3 6 33 -5 47 -2 53 19 39z"/>
<path d="M3956 3086 c-3 -12 -6 -32 -6 -46 0 -18 -3 -21 -9 -11 -6 9 -11 -8
-16 -52 -4 -37 -11 -64 -16 -61 -5 3 -9 -11 -9 -31 0 -20 -4 -34 -9 -31 -5 3
-12 -27 -16 -67 -4 -39 -11 -74 -16 -77 -4 -3 -11 -44 -15 -90 -5 -56 -10 -78
-15 -65 -5 12 -8 -11 -9 -60 -1 -56 -4 -73 -10 -55 -5 16 -8 -8 -9 -72 -1 -59
3 -98 9 -98 6 0 10 -7 10 -15 0 -8 5 -15 10 -15 6 0 10 -7 10 -15 0 -9 10 -20
23 -25 12 -5 18 -9 12 -10 -18 -2 29 -19 56 -19 l27 -1 1 -137 c1 -85 6 -140
13 -144 7 -4 6 -8 -3 -12 -10 -4 -9 -6 4 -6 15 -1 17 12 17 139 l0 140 26 0
c14 0 23 4 19 10 -3 6 3 11 14 11 34 2 37 3 55 22 10 9 22 17 27 17 5 0 11 11
15 25 3 14 10 25 15 25 5 0 9 46 8 103 -1 60 -4 92 -8 77 -5 -16 -10 15 -15
90 -6 81 -11 108 -17 93 -5 -13 -10 -23 -11 -23 -2 0 -1 25 0 56 3 35 0 54 -6
50 -6 -3 -13 21 -17 59 -3 36 -10 63 -15 60 -4 -3 -11 24 -15 60 -3 36 -10 63
-15 60 -5 -3 -12 19 -15 50 -4 30 -11 52 -16 49 -5 -3 -9 10 -9 28 0 25 -3 29
-10 18 -8 -13 -10 -13 -10 1 0 23 -28 19 -34 -5z m36 -72 c-3 -26 -1 -35 7
-30 7 5 11 -5 11 -31 0 -25 3 -33 9 -24 6 9 11 -7 16 -48 4 -33 11 -59 15 -56
4 3 11 -31 15 -75 4 -44 10 -78 15 -75 7 5 19 -71 21 -135 0 -29 2 -31 9 -15
6 14 9 -3 10 -55 1 -52 4 -69 10 -55 6 13 9 -7 9 -62 1 -49 -3 -83 -9 -83 -5
0 -10 -5 -10 -10 0 -22 -53 -60 -84 -60 -24 0 -27 -3 -16 -10 12 -8 11 -10 -7
-10 -22 0 -23 4 -23 80 0 64 -3 80 -15 80 -12 0 -15 -16 -16 -82 0 -46 -3 -78
-6 -71 -2 7 -20 15 -39 19 -25 5 -36 13 -40 30 -3 13 -10 24 -14 24 -16 0 -21
59 -14 175 4 71 10 110 14 95 4 -16 10 14 15 80 5 69 10 98 16 85 5 -14 8 -1
9 40 1 40 4 53 9 40 5 -13 10 7 15 63 4 45 11 80 16 77 4 -3 11 20 15 50 3 30
11 55 17 55 6 0 6 6 -2 15 -10 12 -9 15 7 15 16 0 18 -6 15 -36z m22 0 c3 -8
2 -12 -4 -9 -6 3 -10 10 -10 16 0 14 7 11 14 -7z"/>
<path d="M1872 2970 c0 -14 2 -19 5 -12 2 6 2 18 0 25 -3 6 -5 1 -5 -13z"/>
<path d="M2020 2907 c0 -20 21 -27 83 -27 34 0 47 -3 38 -9 -9 -6 26 -12 95
-17 67 -4 99 -10 84 -14 -16 -4 8 -9 69 -14 52 -4 89 -11 82 -15 -7 -5 10 -11
41 -14 29 -4 54 -11 56 -17 2 -5 10 -10 18 -10 8 0 14 -6 14 -14 0 -10 -16
-17 -45 -22 -25 -3 -45 -10 -45 -15 0 -5 -13 -9 -30 -9 -20 0 -30 -5 -30 -15
0 -8 -4 -15 -10 -15 -5 0 -7 6 -5 13 4 9 -8 11 -47 8 -37 -2 -47 -6 -33 -11
12 -5 -22 -10 -87 -15 -60 -4 -108 -11 -108 -15 0 -4 -63 -13 -140 -20 -77 -7
-137 -16 -135 -21 3 -4 -29 -10 -70 -14 -41 -4 -73 -11 -70 -15 3 -4 -28 -11
-67 -15 -49 -4 -67 -9 -57 -16 10 -6 7 -9 -12 -9 -41 0 -89 -12 -84 -20 3 -4
-14 -10 -37 -13 -24 -3 -44 -10 -46 -16 -2 -6 -19 -13 -37 -17 -19 -3 -36 -12
-39 -20 -3 -8 -13 -14 -21 -14 -9 0 -14 -4 -11 -9 3 -5 -5 -12 -18 -15 -14 -3
-28 -16 -32 -29 -4 -12 -12 -25 -18 -29 -6 -4 -11 -38 -11 -81 l0 -74 48 -46
c26 -26 52 -47 57 -47 5 0 15 -7 23 -15 8 -8 30 -17 48 -20 19 -3 36 -10 37
-16 2 -5 21 -12 43 -15 21 -4 39 -10 39 -14 0 -5 19 -11 43 -15 23 -4 44 -11
47 -15 5 -8 15 -10 125 -26 28 -4 52 -11 55 -15 3 -4 28 -11 55 -15 28 -3 52
-10 55 -14 3 -4 31 -11 62 -15 32 -4 56 -11 53 -15 -2 -4 21 -10 52 -13 31 -3
59 -10 62 -15 5 -9 61 -21 99 -22 7 0 10 -4 7 -10 -3 -5 2 -10 12 -11 36 -1
68 -10 71 -19 2 -5 19 -12 38 -16 19 -3 34 -10 34 -15 0 -5 6 -9 13 -9 15 0
50 -39 54 -60 6 -38 -10 -60 -50 -72 -22 -7 -35 -14 -28 -16 23 -8 10 -17 -24
-18 -40 -1 -53 -10 -37 -26 8 -8 15 -6 27 6 18 18 25 20 25 8 0 -5 -12 -15
-26 -22 -21 -12 -27 -12 -33 -1 -7 10 -24 11 -71 6 -37 -4 -57 -10 -50 -15 8
-5 -19 -11 -64 -15 -42 -4 -76 -11 -76 -15 0 -5 -34 -11 -75 -15 -41 -4 -73
-11 -70 -15 3 -5 -33 -11 -80 -15 -47 -4 -82 -11 -79 -16 3 -5 -7 -9 -23 -10
-50 0 -118 -11 -123 -19 -3 -4 -38 -11 -77 -15 -40 -4 -73 -11 -73 -15 0 -5
-31 -12 -70 -16 -38 -3 -70 -10 -70 -14 0 -5 -27 -11 -60 -15 -33 -4 -58 -11
-55 -15 3 -4 -20 -11 -50 -15 -30 -3 -55 -10 -55 -14 0 -4 -32 -14 -70 -21
-39 -7 -70 -16 -70 -20 0 -4 -18 -10 -39 -14 -22 -3 -41 -10 -43 -15 -1 -6
-19 -13 -38 -16 -19 -3 -37 -10 -40 -15 -3 -5 -18 -12 -33 -15 -15 -4 -27 -11
-27 -15 0 -4 -11 -11 -25 -14 -14 -4 -25 -10 -25 -15 0 -5 -14 -12 -30 -16
-17 -4 -28 -11 -24 -16 3 -5 -2 -9 -11 -9 -8 0 -18 -7 -21 -15 -4 -8 -13 -15
-21 -15 -18 0 -93 -72 -93 -89 0 -7 -4 -9 -10 -6 -5 3 -10 -1 -10 -9 0 -9 -4
-16 -10 -16 -5 0 -12 -11 -16 -25 -3 -14 -10 -23 -14 -20 -4 3 -11 -20 -15
-51 -7 -60 2 -156 16 -164 5 -3 10 -17 12 -30 2 -13 9 -26 15 -28 7 -2 12 -8
12 -13 0 -14 111 -119 127 -119 8 0 11 -5 8 -10 -3 -6 1 -10 10 -10 8 0 18 -7
21 -15 4 -8 12 -15 19 -15 8 0 20 -6 27 -14 8 -7 24 -17 36 -20 12 -4 22 -11
22 -16 0 -5 13 -11 30 -15 16 -4 30 -10 30 -15 0 -5 14 -11 30 -15 17 -4 28
-11 24 -16 -3 -5 1 -9 8 -10 31 -2 63 -10 68 -18 3 -5 18 -13 34 -17 21 -5 27
-4 22 5 -4 6 -11 9 -16 6 -5 -3 -11 3 -14 13 -3 10 -16 18 -28 19 -11 1 -24 7
-28 13 -4 7 -11 12 -16 11 -21 -1 -53 12 -49 19 9 14 75 -5 75 -21 0 -6 4 -7
10 -4 5 3 10 1 10 -5 0 -6 5 -8 10 -5 6 3 13 -1 16 -9 3 -9 12 -16 19 -16 7 0
15 -6 18 -12 5 -16 12 -10 21 19 6 18 2 22 -24 28 -16 4 -30 10 -30 15 0 5
-14 11 -30 15 -16 4 -30 10 -30 15 0 4 -16 11 -35 14 -19 4 -35 11 -35 16 0 4
-13 11 -30 15 -16 4 -30 10 -30 15 0 5 -10 12 -22 16 -13 4 -26 11 -30 17 -3
6 -14 12 -24 13 -10 2 -21 10 -26 18 -5 9 -16 16 -24 16 -8 0 -12 4 -9 10 3 5
-1 10 -9 10 -8 0 -19 6 -23 14 -4 7 -18 18 -31 25 -12 6 -22 19 -22 27 0 21
-16 9 -23 -17 -4 -15 -2 -19 9 -15 8 3 13 2 10 -2 -2 -4 -1 -14 5 -22 7 -12 9
-11 9 4 0 16 3 17 12 8 10 -10 10 -15 -1 -22 -10 -6 -23 0 -42 17 -23 23 -25
28 -13 40 19 19 18 40 -3 52 -16 8 -18 25 -18 122 0 81 3 113 13 116 6 3 12
10 12 16 0 14 110 117 125 117 7 0 15 7 19 15 3 8 14 15 25 15 10 0 21 7 25
15 3 8 12 15 21 15 8 0 15 4 15 9 0 5 16 12 35 15 19 4 35 11 35 16 0 4 13 11
30 15 16 4 30 11 30 15 0 5 17 12 38 16 20 4 39 11 42 15 6 9 39 17 73 18 10
1 16 5 12 10 -3 5 20 13 50 16 30 4 55 11 55 15 0 4 38 14 85 21 46 6 82 16
79 21 -3 4 9 9 25 9 17 1 36 3 41 4 6 1 25 3 43 4 22 1 28 4 18 10 -9 6 16 11
69 16 53 5 78 10 69 16 -9 6 0 9 29 10 23 1 47 3 52 4 6 1 29 3 53 4 31 1 38
4 27 11 -11 7 -6 10 20 10 57 1 125 12 130 20 3 4 40 11 83 15 70 7 76 9 60
22 -10 8 -12 12 -5 8 18 -9 167 6 152 15 -7 4 18 11 55 15 58 6 64 8 48 20
-11 8 -20 10 -24 3 -4 -6 -9 -3 -12 5 -3 9 2 17 14 20 12 3 19 0 19 -10 0 -12
9 -14 47 -9 25 3 49 9 52 14 3 5 17 13 31 17 13 4 30 14 38 21 7 8 20 14 28
14 8 0 14 7 14 16 0 8 4 13 9 10 13 -9 19 15 17 69 -1 28 -7 50 -14 53 -7 2
-25 17 -41 32 -16 16 -40 32 -55 36 -14 3 -26 10 -26 15 0 5 -18 12 -41 15
-25 4 -36 10 -28 14 7 5 -11 11 -44 15 -31 4 -55 11 -52 15 3 5 -20 12 -50 15
-30 4 -55 11 -55 16 0 4 -27 11 -60 15 -33 3 -58 10 -55 14 4 7 -25 13 -135
27 -25 3 -47 9 -50 13 -3 4 -31 11 -62 15 -32 4 -56 11 -53 15 3 4 -20 11 -50
15 -30 3 -55 10 -55 15 0 4 -20 11 -45 14 -25 4 -45 11 -45 15 0 5 -18 11 -40
15 -23 4 -38 11 -35 16 3 6 -3 10 -14 10 -11 0 -26 7 -35 15 -8 8 -19 15 -24
15 -13 0 -62 47 -62 60 0 5 -4 10 -10 10 -5 0 -10 20 -10 45 0 25 5 45 10 45
6 0 10 6 10 14 0 8 7 17 16 20 8 3 12 10 9 16 -4 6 -12 7 -18 4 -7 -4 -8 -3
-4 2 5 5 16 9 26 9 10 0 25 8 35 18 10 9 24 17 32 17 8 0 14 4 14 9 0 5 14 12
30 16 17 4 30 10 30 15 0 4 18 11 40 15 22 4 40 11 40 15 0 5 25 12 55 15 30
4 53 11 50 15 -3 4 32 11 76 15 46 4 76 11 69 15 -7 5 25 11 73 15 48 4 85 11
82 15 -3 4 40 11 95 15 55 4 97 11 94 16 -3 5 10 9 28 9 63 0 247 23 243 31
-3 4 27 10 66 14 47 5 67 10 58 16 -10 6 -5 9 17 9 42 0 88 40 79 69 -3 11
-17 24 -31 27 -13 3 -22 10 -19 14 5 8 -43 20 -84 20 -19 0 -22 3 -12 9 9 6
-16 11 -72 16 -48 4 -85 11 -82 15 3 5 -41 12 -97 16 -67 4 -96 10 -83 15 14
5 8 8 -25 8 -25 1 -62 4 -82 7 -30 5 -38 3 -38 -9z m-630 -777 c0 -5 -2 -10
-4 -10 -3 0 -8 5 -11 10 -3 6 -1 10 4 10 6 0 11 -4 11 -10z m207 -75 c0 -8 -4
-12 -9 -9 -5 3 -6 10 -3 15 9 13 12 11 12 -6z m357 -90 c5 0 11 -6 14 -13 4
-12 0 -12 -19 -1 -13 7 -28 12 -32 11 -5 -1 -6 2 -2 8 3 6 12 7 18 3 7 -4 16
-8 21 -8z m116 -31 c0 -2 -7 -4 -15 -4 -8 0 -15 4 -15 10 0 5 7 7 15 4 8 -4
15 -8 15 -10z m444 -246 c4 -20 3 -28 -7 -28 -9 0 -12 9 -9 30 5 36 7 35 16
-2z m-284 -146 c0 -5 -7 -9 -15 -9 -8 0 -12 4 -9 9 3 4 9 8 15 8 5 0 9 -4 9
-8z m-53 -8 c-3 -3 -12 -4 -19 -1 -8 3 -5 6 6 6 11 1 17 -2 13 -5z m-347 -68
c0 -2 -7 -7 -16 -10 -8 -3 -12 -2 -9 4 6 10 25 14 25 6z m-515 -116 c-3 -5
-12 -10 -18 -10 -7 0 -6 4 3 10 19 12 23 12 15 0z m-265 -74 c-7 -7 -14 -6
-21 1 -9 9 -7 12 9 10 14 -1 18 -5 12 -11z m-125 -25 c3 -5 2 -12 -3 -15 -5
-3 -9 1 -9 9 0 17 3 19 12 6z m-119 -63 c4 -7 3 -8 -4 -4 -7 4 -12 2 -12 -5 0
-7 -3 -10 -6 -6 -6 5 3 27 11 27 2 0 7 -5 11 -12z m-95 -65 c13 -16 12 -17 -3
-4 -10 7 -18 15 -18 17 0 8 8 3 21 -13z m-91 -49 c0 -1 -15 -12 -32 -24 -27
-18 -29 -18 -11 -2 12 11 20 22 18 24 -3 3 2 5 10 5 8 0 15 -2 15 -3z m-65
-64 c-3 -5 -11 -10 -16 -10 -6 0 -7 5 -4 10 3 6 11 10 16 10 6 0 7 -4 4 -10z
m-25 -30 c0 -5 -5 -10 -11 -10 -5 0 -7 5 -4 10 3 6 8 10 11 10 2 0 4 -4 4 -10z
m-28 -52 c-3 -12 -7 -17 -10 -10 -2 7 -9 10 -15 6 -7 -3 -4 1 5 9 10 8 14 18
10 22 -4 5 -2 5 5 2 6 -4 9 -17 5 -29z m-19 -44 c-4 -12 -8 -13 -14 -3 -9 15
-2 32 11 24 5 -3 6 -13 3 -21z m14 -76 c-2 -13 -4 -3 -4 22 0 25 2 35 4 23 2
-13 2 -33 0 -45z m-30 20 c-3 -7 -5 -2 -5 12 0 14 2 19 5 13 2 -7 2 -19 0 -25z
m5 -27 c7 10 8 6 4 -13 -4 -16 -2 -28 3 -28 5 0 11 -9 14 -20 3 -13 0 -20 -10
-20 -9 0 -13 6 -10 14 3 8 2 16 -4 18 -5 2 -11 17 -14 33 -2 17 -1 24 2 16 5
-11 7 -11 15 0z m26 -116 c-3 -3 -9 2 -12 12 -6 14 -5 15 5 6 7 -7 10 -15 7
-18z m127 -114 c3 -5 0 -13 -6 -17 -7 -4 -9 -3 -5 4 3 5 0 13 -6 15 -9 4 -10
6 -1 6 6 1 14 -3 18 -8z m54 -45 c13 -14 29 -22 36 -20 7 3 15 -2 19 -12 5
-13 4 -14 -7 -6 -8 7 -16 10 -18 7 -3 -2 -20 9 -39 25 -19 17 -30 30 -24 30 6
0 21 -11 33 -24z m88 -61 c0 -8 -4 -12 -9 -9 -4 3 -8 9 -8 15 0 5 4 9 8 9 5 0
9 -7 9 -15z m59 -25 c8 0 14 -5 14 -10 0 -6 -13 -4 -30 5 -16 9 -30 20 -30 26
0 6 7 3 16 -5 8 -9 22 -16 30 -16z"/>
<path d="M1134 2785 c0 -55 1 -76 3 -47 2 29 2 74 0 100 -2 26 -3 2 -3 -53z"/>
<path d="M2730 2840 c0 -5 18 -13 40 -16 22 -4 40 -10 40 -14 0 -4 12 -11 26
-14 29 -8 54 -29 54 -45 0 -6 -4 -11 -10 -11 -5 0 -10 -6 -10 -14 0 -8 -13
-17 -30 -21 -16 -4 -30 -10 -30 -15 0 -4 -20 -11 -45 -15 -25 -3 -43 -10 -41
-14 3 -4 -39 -14 -94 -21 -55 -7 -97 -16 -95 -20 3 -4 -27 -11 -65 -14 -39 -4
-70 -11 -70 -15 0 -5 -32 -12 -70 -15 -39 -4 -68 -11 -65 -15 2 -5 -20 -11
-50 -14 -32 -3 -62 -13 -72 -23 -17 -16 -15 -17 37 -10 30 4 57 11 60 15 3 5
35 12 73 15 37 4 65 11 62 16 -3 4 31 11 75 15 44 4 80 11 80 15 0 4 27 11 60
15 33 4 60 11 60 16 0 5 12 9 28 9 33 1 143 28 122 30 -8 1 2 6 22 11 54 13
78 37 78 79 0 42 -26 69 -76 77 -19 3 -34 10 -34 14 0 5 -13 9 -30 9 -16 0
-30 -4 -30 -10z"/>
<path d="M3052 2636 c-46 -6 -81 -14 -77 -17 3 -4 -33 -10 -80 -14 -47 -4 -85
-10 -85 -15 0 -4 -37 -11 -81 -15 -45 -4 -76 -11 -69 -15 6 -4 -20 -10 -59
-14 -39 -4 -69 -11 -66 -15 2 -5 -20 -12 -50 -16 -30 -3 -55 -10 -55 -15 0 -5
-13 -11 -30 -15 -16 -4 -30 -10 -30 -15 0 -5 -14 -11 -31 -15 -57 -13 -86 -60
-75 -121 5 -25 13 -35 32 -40 17 -4 22 -9 14 -14 -7 -4 2 -10 24 -14 20 -4 36
-11 36 -15 0 -5 20 -12 45 -15 25 -4 45 -11 45 -16 0 -5 25 -12 55 -15 30 -4
53 -11 50 -15 -3 -4 32 -11 76 -15 45 -4 76 -11 69 -15 -7 -4 24 -11 70 -15
45 -4 77 -11 70 -15 -7 -4 23 -11 66 -15 44 -4 82 -11 85 -17 7 -11 133 -15
166 -6 13 4 25 3 28 -2 3 -5 -4 -7 -15 -5 -11 2 -20 -1 -20 -6 0 -6 -4 -8 -9
-4 -5 3 -12 1 -15 -4 -3 -5 21 -12 54 -16 33 -4 60 -10 60 -15 0 -4 23 -10 52
-13 28 -4 54 -10 57 -15 3 -5 36 -15 74 -22 37 -7 67 -16 67 -20 0 -5 18 -11
40 -15 22 -4 40 -10 40 -15 0 -4 15 -11 34 -14 19 -4 37 -13 40 -22 3 -8 10
-12 16 -9 6 3 13 -1 16 -9 3 -9 13 -16 21 -16 17 0 113 -93 113 -109 0 -5 6
-11 13 -13 8 -3 12 -29 12 -83 0 -54 -4 -80 -12 -82 -7 -3 -13 -9 -13 -14 0
-16 -96 -109 -113 -109 -8 0 -18 -7 -21 -16 -3 -8 -10 -12 -16 -9 -6 3 -13 -1
-16 -9 -3 -9 -21 -18 -40 -22 -19 -3 -34 -10 -34 -15 0 -5 -18 -12 -41 -15
-23 -4 -36 -10 -29 -14 7 -4 -8 -10 -34 -14 -26 -4 -44 -11 -41 -16 3 -4 -17
-11 -43 -16 -26 -4 -50 -8 -54 -10 -5 -1 -20 -2 -35 -3 -21 -1 -24 -4 -14 -10
9 -6 -8 -11 -52 -16 -37 -4 -67 -11 -67 -15 0 -5 -27 -11 -60 -15 -33 -4 -58
-11 -55 -15 3 -4 -22 -11 -55 -15 -33 -4 -58 -11 -55 -15 3 -4 -20 -11 -50
-15 -30 -3 -55 -10 -55 -15 0 -4 -20 -11 -45 -15 -25 -3 -43 -10 -40 -15 3 -4
-13 -11 -35 -15 -22 -4 -40 -11 -40 -15 0 -5 -13 -11 -30 -15 -16 -4 -30 -10
-30 -15 0 -4 -12 -11 -27 -15 -15 -3 -37 -17 -50 -31 -12 -13 -28 -24 -35 -24
-16 0 -58 -49 -58 -67 0 -8 -4 -11 -10 -8 -11 7 -14 -17 -11 -80 1 -22 7 -41
12 -43 5 -2 9 -10 9 -17 0 -18 59 -77 71 -69 5 3 12 -1 15 -10 3 -8 19 -18 35
-21 16 -4 27 -11 24 -16 -3 -5 12 -12 35 -15 22 -4 40 -10 40 -15 0 -4 27 -13
60 -20 33 -6 58 -15 55 -19 -3 -4 15 -11 40 -14 25 -4 45 -11 45 -16 0 -5 25
-12 55 -15 30 -4 53 -11 50 -15 -3 -4 20 -11 50 -15 30 -3 55 -10 55 -15 0 -5
25 -12 56 -16 37 -4 51 -9 43 -15 -10 -6 -8 -9 7 -9 12 0 42 -3 67 -6 42 -6
46 -5 49 17 3 20 5 21 18 8 8 -9 29 -15 46 -13 26 1 31 -1 27 -16 -3 -12 -11
-16 -20 -13 -12 5 -12 7 -1 15 8 5 -2 6 -27 2 -70 -12 -70 -21 0 -29 39 -4 63
-10 56 -15 -8 -4 16 -11 55 -15 38 -4 62 -10 55 -15 -8 -4 15 -10 53 -15 36
-3 64 -10 61 -15 -3 -4 22 -11 55 -15 33 -4 58 -11 55 -15 -3 -4 22 -11 55
-15 33 -4 58 -10 55 -14 -2 -5 34 -14 80 -21 47 -7 85 -17 85 -21 0 -4 25 -11
56 -15 31 -3 51 -10 44 -14 -7 -4 18 -11 54 -15 36 -3 64 -10 61 -15 -6 -9 92
-23 106 -15 5 4 8 18 6 33 -3 21 -10 27 -38 30 -18 2 -36 7 -39 12 -5 8 -30
13 -122 26 -26 4 -45 10 -42 15 3 5 -4 10 -15 10 -12 1 -25 3 -31 4 -5 1 -24
3 -41 4 -17 0 -28 5 -24 11 3 6 0 10 -7 10 -35 1 -94 13 -98 20 -3 4 -32 11
-65 15 -54 7 -59 6 -47 -8 8 -9 20 -13 28 -10 8 3 21 0 29 -7 8 -6 20 -8 27
-4 10 5 10 4 1 -6 -9 -10 -15 -11 -27 -1 -7 6 -26 10 -40 7 -15 -3 -24 -1 -21
4 8 13 -9 20 -25 10 -16 -10 -40 -2 -40 12 0 6 6 5 15 -2 11 -9 15 -9 15 -1 0
7 4 10 9 7 5 -3 14 1 21 9 10 12 9 15 -9 16 -11 1 -25 3 -31 4 -5 1 -24 3 -41
4 -17 0 -28 5 -24 11 3 6 -3 11 -14 11 -12 1 -25 3 -31 4 -5 1 -24 3 -41 4
-16 0 -28 5 -25 10 3 5 -21 12 -54 16 -33 4 -58 11 -55 15 3 4 -22 11 -55 15
-33 4 -58 11 -55 15 3 5 -25 12 -61 15 -38 5 -61 11 -53 15 7 5 -17 11 -55 15
-39 4 -63 11 -55 15 7 5 -17 11 -55 15 -38 4 -63 11 -57 14 6 4 -25 13 -69 20
-44 8 -80 17 -80 21 0 4 -19 10 -42 14 -23 4 -45 11 -48 16 -5 9 -36 17 -68
19 -7 1 -11 5 -8 10 3 5 -11 12 -32 16 -20 4 -40 12 -44 18 -4 7 -11 12 -16
12 -5 0 -23 14 -40 32 -18 17 -37 33 -44 35 -8 3 -13 24 -13 54 0 27 -3 54 -8
61 -4 6 -3 15 3 18 6 4 9 1 8 -6 -6 -25 21 -18 55 15 19 19 45 37 56 41 12 3
21 10 21 15 0 5 14 11 30 15 17 4 30 10 30 15 0 4 18 11 40 15 36 6 39 9 28
23 -9 10 -9 13 -1 9 15 -9 94 3 88 13 -3 4 19 11 48 14 28 4 54 12 58 17 3 5
29 12 58 16 29 3 47 9 41 13 -7 4 20 10 59 14 39 4 69 11 66 16 -3 4 22 11 55
15 33 4 58 11 55 15 -3 4 20 11 50 15 30 3 55 10 55 15 0 4 20 11 45 15 25 3
43 10 40 14 -2 5 22 14 55 20 33 7 60 16 60 20 0 5 16 12 35 15 19 4 35 11 35
16 0 4 14 11 30 15 17 4 30 10 30 15 0 5 9 11 20 15 35 11 140 121 146 154 4
17 10 28 15 25 5 -3 9 34 9 81 0 48 -4 84 -9 81 -5 -3 -12 10 -15 29 -4 20
-11 33 -17 30 -5 -4 -9 1 -9 9 0 22 -15 27 -44 17 -20 -8 -24 -7 -20 4 3 7 12
11 20 8 8 -3 14 -3 14 1 0 11 -70 75 -90 81 -11 3 -20 10 -20 15 0 5 -13 11
-30 15 -16 4 -30 10 -30 15 0 5 -25 14 -55 21 -30 7 -52 16 -50 20 3 4 -20 11
-51 15 -37 4 -51 9 -43 15 10 6 6 9 -13 10 -16 1 -32 3 -38 4 -5 1 -19 3 -31
4 -11 0 -18 5 -15 10 3 5 -21 12 -54 16 -33 4 -57 11 -54 16 3 5 -9 10 -25 10
-17 1 -35 3 -41 4 -5 1 -29 4 -52 5 -37 2 -40 3 -18 10 22 7 19 8 -17 10 -24
1 -47 4 -53 5 -5 1 -24 3 -41 4 -16 0 -28 5 -25 10 3 5 -28 12 -69 16 -41 4
-73 10 -70 15 3 4 -33 11 -80 15 -47 4 -83 11 -80 15 3 5 -27 12 -66 16 -39 4
-66 10 -59 14 6 4 -12 10 -41 13 -29 4 -55 10 -58 14 -3 5 -28 14 -54 21 -27
7 -56 19 -64 27 -8 8 -19 15 -24 15 -5 0 -9 12 -9 28 0 21 2 24 10 12 8 -13
10 -12 10 3 0 9 7 17 16 17 8 0 13 4 10 9 -4 5 7 12 24 16 16 4 30 11 30 16 0
5 18 12 40 15 22 4 40 10 40 14 0 4 20 11 45 14 25 4 45 11 45 16 0 4 34 11
76 15 43 4 71 11 64 15 -7 4 26 11 73 15 48 4 85 11 82 15 -3 5 33 11 80 15
47 4 83 11 80 15 -3 4 27 11 67 15 60 6 98 21 98 37 0 7 -57 5 -138 -6z m-592
-387 c0 -7 9 -9 21 -6 17 5 18 3 8 -9 -10 -13 -15 -12 -33 3 -12 10 -23 19
-25 20 -2 2 3 3 12 3 10 0 17 -5 17 -11z m75 -19 c3 -6 -1 -7 -9 -4 -18 7 -21
14 -7 14 6 0 13 -4 16 -10z m220 -58 c-3 -3 -11 0 -18 7 -9 10 -8 11 6 5 10
-3 15 -9 12 -12z m468 -87 c-3 -9 -8 -14 -10 -11 -3 3 -2 9 2 15 9 16 15 13 8
-4z m57 -16 c0 -6 7 -8 16 -5 8 3 13 2 10 -3 -3 -5 -14 -11 -25 -14 -15 -3
-18 -1 -14 11 5 11 3 13 -7 7 -9 -5 -11 -4 -6 3 9 15 26 15 26 1z m260 -83 c0
-2 -7 -7 -16 -10 -8 -3 -12 -2 -9 4 6 10 25 14 25 6z m90 -43 c0 -7 -39 17
-46 28 -3 6 5 3 20 -6 14 -10 26 -19 26 -22z m55 -23 c10 -11 16 -20 13 -20
-3 0 -13 9 -23 20 -10 11 -16 20 -13 20 3 0 13 -9 23 -20z m70 -40 c3 -6 -1
-7 -9 -4 -18 7 -21 14 -7 14 6 0 13 -4 16 -10z m82 -76 c-3 -3 -12 -4 -19 -1
-8 3 -5 6 6 6 11 1 17 -2 13 -5z m40 -106 c-3 -8 -6 -5 -6 6 -1 11 2 17 5 13
3 -3 4 -12 1 -19z m-5 -90 c-6 -6 -7 0 -4 19 5 21 7 23 10 9 2 -10 0 -22 -6
-28z m-92 -132 c0 -2 -8 -10 -17 -17 -16 -13 -17 -12 -4 4 13 16 21 21 21 13z
m-420 -192 c0 -8 -19 -13 -24 -6 -3 5 1 9 9 9 8 0 15 -2 15 -3z m-120 -28 c0
-2 -6 -9 -14 -15 -11 -9 -16 -9 -22 0 -4 7 -3 9 4 5 6 -3 13 -2 17 4 6 10 15
14 15 6z m-580 -185 c0 -5 -7 -12 -16 -15 -14 -5 -15 -4 -4 9 14 17 20 19 20
6z m-203 -203 c-3 -8 -6 -5 -6 6 -1 11 2 17 5 13 3 -3 4 -12 1 -19z m13 -22
c0 -3 -4 -8 -10 -11 -5 -3 -10 -1 -10 4 0 6 5 11 10 11 6 0 10 -2 10 -4z m29
-59 c0 -9 -2 -9 -6 1 -2 6 -8 10 -13 7 -4 -3 -11 2 -14 10 -4 13 -2 14 14 5
11 -6 20 -16 19 -23z m25 -16 c3 -5 -1 -14 -8 -20 -12 -10 -14 -9 -11 6 2 10
4 19 4 21 2 5 10 2 15 -7z m21 -20 c-3 -5 -1 -12 5 -16 5 -3 10 -11 10 -18 0
-6 -6 -2 -14 8 -13 18 -13 35 0 35 3 0 3 -4 -1 -9z m199 -87 c8 -21 8 -24 -3
-24 -5 0 -11 9 -14 20 -6 24 8 27 17 4z m171 -73 c-6 -5 -25 10 -25 20 0 5 6
4 14 -3 8 -7 12 -15 11 -17z m109 -20 c4 -5 -1 -8 -9 -7 -21 3 -31 16 -12 16
9 0 18 -4 21 -9z m36 -11 c0 -5 -2 -10 -4 -10 -3 0 -8 5 -11 10 -3 6 -1 10 4
10 6 0 11 -4 11 -10z m103 -25 c15 -3 27 -10 27 -15 0 -5 -18 -3 -40 5 -22 8
-40 12 -40 9 0 -3 -5 -2 -10 1 -18 11 0 25 18 15 9 -5 29 -11 45 -15z m91 -33
c16 3 23 1 19 -7 -8 -22 -73 4 -73 29 0 6 7 3 15 -8 9 -12 22 -17 39 -14z
m246 -51 c14 -1 36 -10 50 -21 24 -20 17 -20 -27 -3 -10 3 -27 8 -38 9 -54 7
-87 23 -38 18 16 -1 39 -3 53 -3z m130 -41 c0 10 3 10 15 0 22 -18 8 -32 -18
-18 -12 7 -25 13 -29 14 -5 1 -11 2 -14 3 -3 0 -2 6 1 12 5 7 14 4 26 -7 13
-12 19 -13 19 -4z m55 -20 c3 -5 1 -10 -4 -10 -6 0 -11 5 -11 10 0 6 2 10 4
10 3 0 8 -4 11 -10z m253 -65 c4 -5 1 -5 -5 -1 -7 4 -13 2 -13 -4 0 -7 -6 -8
-19 -1 -10 6 -21 8 -24 5 -3 -3 -8 -1 -11 5 -8 12 61 8 72 -4z m36 -3 c3 -5
19 -7 35 -6 29 2 41 -9 23 -20 -13 -8 -75 9 -80 22 -4 13 14 17 22 4z m118
-37 c3 0 9 -3 13 -7 4 -3 0 -5 -9 -4 -8 1 -18 5 -22 8 -3 4 -13 4 -22 1 -14
-4 -15 -3 -2 5 8 6 19 8 25 4 5 -4 13 -7 17 -7z m77 -23 c13 0 29 -6 35 -12 8
-8 4 -9 -14 -2 -14 5 -30 7 -36 5 -6 -2 -17 4 -25 14 -12 16 -12 17 1 7 8 -6
26 -11 39 -12z m66 -12 c-3 -6 1 -7 9 -4 9 3 16 1 16 -4 0 -6 9 -9 20 -7 24 5
36 -11 15 -19 -21 -8 -75 14 -75 30 0 8 5 14 11 14 5 0 7 -4 4 -10z"/>
<path d="M1109 2603 l-1 -28 -8 25 c-5 15 -8 -30 -9 -116 -1 -118 2 -143 14
-148 13 -5 15 15 15 144 0 83 -2 150 -5 150 -3 0 -5 -12 -6 -27z"/>
<path d="M1134 2470 c0 -74 1 -105 3 -67 2 37 2 97 0 135 -2 37 -3 6 -3 -68z"/>
<path d="M2008 2483 c-10 -2 -18 -9 -18 -14 0 -12 6 -11 33 2 22 10 22 10 2
-7 -20 -16 -20 -16 5 -10 14 3 28 6 33 6 4 0 7 7 7 15 0 15 -25 18 -62 8z"/>
<path d="M1947 2453 c-9 -2 -15 -9 -12 -14 4 -5 0 -9 -8 -9 -8 0 -27 -12 -43
-27 -26 -24 -29 -33 -29 -88 0 -55 3 -64 29 -88 16 -15 35 -27 43 -27 8 0 12
-4 9 -9 -3 -5 6 -12 21 -16 16 -3 30 -11 34 -16 3 -5 25 -12 48 -15 34 -5 42
-3 36 6 -5 9 -4 11 4 6 9 -6 9 -11 1 -21 -9 -11 0 -15 44 -20 31 -4 56 -11 56
-15 0 -4 27 -11 60 -15 33 -4 58 -11 55 -15 -3 -4 39 -11 92 -15 59 -5 90 -11
78 -15 -13 -5 7 -10 58 -14 42 -4 75 -12 71 -17 -3 -5 6 -9 20 -9 41 0 166
-23 166 -31 0 -4 20 -10 45 -14 25 -3 43 -10 40 -15 -3 -5 15 -12 40 -15 25
-4 42 -11 39 -16 -5 -8 12 -13 44 -12 6 1 12 -5 12 -13 0 -8 4 -14 9 -14 5 0
18 -3 28 -7 16 -6 16 -5 4 10 -9 11 -10 17 -2 17 6 0 11 -4 11 -9 0 -10 26 -9
36 2 4 4 0 7 -10 7 -9 0 -19 7 -22 15 -3 8 -21 17 -40 21 -19 3 -34 10 -34 15
0 5 -6 9 -12 9 -7 -1 -2 -10 11 -20 13 -11 18 -20 11 -20 -14 0 -40 25 -40 39
0 6 -6 11 -14 11 -8 0 -16 5 -18 10 -2 6 -34 16 -71 23 -38 7 -65 15 -62 19 3
3 -21 9 -54 13 -34 4 -59 10 -56 15 3 4 -29 11 -70 15 -41 4 -73 10 -70 15 3
4 -34 12 -82 16 -59 4 -81 9 -68 15 16 6 13 8 -15 8 -19 1 -59 4 -89 8 -40 4
-52 3 -47 -6 4 -6 12 -9 17 -6 5 4 9 1 9 -4 0 -14 -17 -14 -25 -1 -3 6 -16 10
-28 11 -14 0 -8 5 18 13 l40 12 -73 8 c-40 4 -70 11 -67 15 2 5 -21 12 -52 16
-33 4 -51 10 -44 15 8 4 -3 10 -29 14 -23 3 -38 11 -35 16 3 6 -1 10 -10 10
-8 0 -18 7 -21 15 -3 8 -14 17 -24 20 -10 3 -20 15 -23 27 -8 29 3 79 16 71 6
-4 8 2 5 15 -4 12 -1 25 4 29 7 4 8 1 3 -7 -6 -9 -2 -10 16 -5 13 4 28 14 32
21 4 8 20 14 35 14 26 1 26 1 8 15 -20 15 -27 16 -59 8z m-30 -218 c0 -8 -4
-12 -9 -9 -5 3 -6 10 -3 15 9 13 12 11 12 -6z m441 -150 c2 -1 -8 -5 -22 -7
-16 -3 -27 0 -30 9 -4 10 1 12 22 7 15 -4 28 -8 30 -9z m263 -68 c-10 -9 -11
-8 -5 6 3 10 9 15 12 12 3 -3 0 -11 -7 -18z m315 -69 c4 4 4 2 1 -5 -7 -12
-44 -7 -53 8 -3 5 6 5 19 0 14 -6 28 -7 33 -3z m81 -50 c-3 -8 -6 -5 -6 6 -1
11 2 17 5 13 3 -3 4 -12 1 -19z"/>
<path d="M4001 1904 c0 -11 3 -14 6 -6 3 7 2 16 -1 19 -3 4 -6 -2 -5 -13z"/>
<path d="M3053 1857 c-3 -5 4 -17 16 -28 12 -11 21 -26 21 -34 0 -8 5 -15 10
-15 6 0 10 -28 10 -64 0 -48 -4 -65 -15 -70 -8 -3 -15 -12 -15 -21 0 -8 -6
-14 -12 -12 -7 1 -12 -4 -10 -10 1 -7 -4 -13 -11 -13 -12 0 -54 -42 -49 -48 2
-1 -2 -10 -7 -20 -6 -9 -11 -12 -11 -7 0 6 5 16 11 22 8 8 8 13 0 18 -6 3 -14
-1 -17 -9 -3 -9 -21 -18 -40 -22 -33 -6 -43 -17 -25 -29 5 -3 12 -1 16 5 3 5
11 10 18 10 6 0 2 -6 -9 -14 -12 -9 -23 -11 -30 -5 -13 10 -76 0 -69 -11 3 -4
-15 -11 -40 -14 -25 -4 -45 -11 -45 -16 0 -5 -25 -12 -55 -15 -30 -4 -53 -11
-50 -15 3 -5 -20 -12 -51 -16 -31 -3 -51 -10 -44 -14 6 -4 -20 -10 -59 -14
-39 -4 -69 -11 -66 -16 3 -5 -25 -12 -61 -15 -36 -4 -61 -11 -54 -15 6 -4 -32
-13 -85 -20 -53 -7 -91 -16 -85 -20 6 -4 -12 -10 -41 -13 -29 -4 -55 -11 -58
-16 -3 -5 -27 -12 -53 -16 -27 -4 -48 -11 -48 -15 0 -4 -20 -11 -45 -15 -25
-3 -43 -10 -40 -15 3 -5 -15 -12 -40 -15 -25 -4 -43 -11 -40 -15 3 -4 -11 -11
-30 -14 -21 -4 -33 -11 -29 -17 3 -6 18 -8 32 -4 22 5 24 4 13 -9 -7 -9 -18
-13 -24 -9 -6 4 -7 1 -2 -8 5 -8 5 -11 0 -7 -4 4 -13 3 -20 -2 -6 -5 -22 -11
-34 -13 -13 -2 -32 -14 -43 -28 -11 -13 -16 -18 -12 -10 5 10 3 13 -8 9 -8 -4
-15 -1 -15 7 0 7 8 10 17 8 9 -2 22 2 29 10 10 13 6 15 -27 14 -28 -2 -38 -6
-34 -15 2 -8 -4 -16 -17 -19 -11 -3 -18 -9 -15 -14 3 -5 -2 -9 -11 -9 -8 0
-18 -7 -21 -15 -3 -8 -14 -17 -25 -20 -10 -4 -19 -13 -19 -20 0 -8 -8 -18 -17
-24 -15 -8 -18 -25 -20 -99 -2 -96 5 -142 17 -122 4 7 6 27 4 44 -4 29 -4 30
10 12 9 -10 13 -23 10 -28 -3 -4 2 -11 10 -14 9 -3 16 -10 16 -15 0 -4 15 -23
33 -41 34 -35 52 -73 23 -48 -27 21 -18 -1 10 -27 16 -14 34 -23 45 -20 10 3
18 2 17 -2 -2 -19 4 -31 16 -31 8 0 21 -7 29 -15 8 -7 26 -17 41 -21 21 -5 25
-3 20 10 -3 9 -11 13 -17 9 -6 -4 -8 0 -4 11 4 10 3 15 -4 11 -5 -4 -15 -2
-22 3 -7 5 -20 8 -30 7 -9 -2 -15 0 -12 5 7 12 -23 33 -39 27 -10 -4 -13 -1
-9 9 3 7 0 14 -6 14 -6 0 -11 4 -11 10 0 16 68 -24 73 -43 3 -11 11 -15 21
-11 9 3 16 1 16 -5 0 -6 7 -8 15 -5 9 4 19 -3 27 -20 6 -15 16 -25 22 -23 18
7 58 -12 50 -24 -4 -8 0 -9 15 -4 15 5 21 2 21 -9 0 -22 -16 -20 -40 4 -12 12
-20 15 -20 7 0 -8 -3 -8 -9 2 -6 9 -15 11 -27 6 -16 -7 -14 -9 14 -18 17 -5
32 -13 32 -18 0 -4 14 -10 30 -14 17 -4 28 -10 25 -15 -3 -4 14 -11 36 -15 25
-4 37 -10 29 -15 -8 -5 -2 -10 16 -14 16 -4 31 -11 34 -16 3 -4 20 -11 38 -15
26 -5 32 -3 32 10 0 10 -5 13 -12 9 -7 -5 -8 -3 -3 6 6 10 4 12 -8 7 -9 -3
-19 -2 -22 4 -4 5 -10 7 -15 4 -9 -6 -25 13 -17 21 3 3 24 -4 48 -15 24 -11
53 -21 64 -23 12 -2 21 -12 23 -26 3 -21 2 -22 -18 -12 -15 8 -25 9 -32 2 -7
-7 1 -13 27 -18 29 -5 41 -3 49 8 15 20 27 22 37 7 5 -9 14 -10 30 -2 22 9 20
10 -19 16 -23 4 -42 11 -42 16 0 5 -13 12 -30 16 -16 4 -30 10 -30 15 0 5 -13
11 -30 15 -16 4 -30 10 -30 15 0 4 -16 11 -35 14 -19 4 -35 11 -35 16 0 4 -13
11 -30 15 -16 4 -30 10 -30 15 0 4 -12 11 -26 14 -15 4 -33 14 -41 22 -8 8
-19 12 -24 8 -5 -3 -12 1 -15 10 -3 8 -19 18 -35 21 -16 4 -27 10 -24 14 2 5
-13 14 -35 21 -21 7 -41 19 -44 27 -3 8 -10 12 -15 9 -13 -8 -89 69 -97 99 -3
14 -10 22 -15 19 -5 -3 -9 10 -10 28 0 27 -2 30 -9 13 -7 -16 -9 -12 -9 18 -1
23 3 36 9 32 6 -4 10 7 10 27 0 22 3 29 9 20 6 -10 10 -7 15 12 3 14 10 26 15
26 4 0 24 15 43 34 19 18 44 37 56 40 12 4 22 11 22 16 0 5 13 11 30 15 17 4
30 10 30 15 0 5 14 11 30 15 17 4 28 10 25 15 -2 4 13 10 34 14 22 3 41 11 43
17 2 5 22 13 46 16 23 3 39 9 37 14 -3 4 15 11 40 15 37 5 43 9 34 20 -9 11
-15 11 -25 3 -8 -6 -14 -8 -14 -4 0 4 -6 3 -12 -2 -7 -6 -21 -9 -30 -8 -10 2
-18 -1 -18 -6 0 -6 -5 -7 -11 -4 -14 9 -7 15 27 21 15 3 32 8 38 12 21 13 58
14 50 1 -5 -9 6 -10 47 -5 29 4 56 11 59 16 3 5 25 12 48 16 23 4 42 10 42 14
0 5 30 12 66 15 36 4 61 11 54 15 -6 4 31 13 84 20 53 7 96 16 96 21 0 4 25
11 55 14 30 4 55 11 55 15 0 5 25 12 55 15 30 4 52 11 49 16 -3 5 4 10 15 10
12 1 26 3 31 4 6 1 22 3 38 4 19 1 23 4 14 10 -9 5 0 10 27 15 23 3 41 10 41
15 0 5 14 12 30 16 17 4 30 11 30 15 0 5 16 12 35 16 19 3 35 9 36 13 3 30 10
46 19 49 5 2 7 9 3 15 -3 7 -3 9 2 5 4 -4 15 -2 24 4 9 7 4 -1 -12 -18 -39
-43 -21 -51 20 -9 19 19 38 35 43 35 5 0 12 11 16 25 3 14 10 25 14 25 13 0
23 84 15 129 -4 23 -11 39 -16 35 -5 -3 -6 -10 -3 -16 4 -7 2 -8 -4 -4 -7 4
-12 3 -12 -3 0 -5 5 -13 10 -16 6 -3 10 -11 10 -18 0 -6 -7 -1 -16 11 -12 17
-13 26 -4 36 6 8 8 26 4 41 -5 20 -9 23 -15 13 -7 -10 -9 -10 -9 3 0 16 -47
22 -57 6z m63 -42 c-1 -8 -4 -16 -7 -17 -2 -2 -3 -1 -2 1 1 2 -2 12 -8 22 -7
14 -6 17 5 13 8 -3 13 -12 12 -19z m11 -117 c-2 -13 -4 -5 -4 17 -1 22 1 32 4
23 2 -10 2 -28 0 -40z m16 -33 c-3 -9 -8 -14 -10 -11 -3 3 -2 9 2 15 9 16 15
13 8 -4z m-24 -51 c-6 -7 -15 -11 -21 -8 -5 3 -4 12 3 20 6 7 15 11 21 8 5 -3
4 -12 -3 -20z m-318 -167 c-6 -8 -9 -16 -7 -18 2 -2 -7 -4 -20 -4 -30 0 -30 1
4 19 34 19 37 19 23 3z m-104 -43 c-16 -9 -34 -13 -40 -10 -7 2 -4 5 6 5 9 1
17 5 17 9 0 4 10 8 23 9 20 2 19 0 -6 -13z m-73 -21 c-5 -5 -12 -12 -16 -18
-4 -6 -8 -2 -8 8 0 9 7 17 17 17 9 0 12 -3 7 -7z m-124 -41 c0 -12 -3 -12 -15
-2 -8 7 -15 13 -15 15 0 1 7 2 15 2 8 0 15 -7 15 -15z m-45 -2 c3 -5 -1 -10
-10 -10 -9 0 -13 5 -10 10 3 6 8 10 10 10 2 0 7 -4 10 -10z m-250 -60 c-3 -5
-12 -10 -18 -10 -7 0 -6 4 3 10 19 12 23 12 15 0z m-93 -39 c-4 -10 -7 -11
-10 -3 -2 7 -8 10 -12 7 -5 -3 -11 -2 -14 3 -2 4 6 8 19 8 16 0 21 -4 17 -15z
m-42 -5 c0 -2 -9 -6 -20 -9 -11 -3 -18 -1 -14 4 5 9 34 13 34 5z m-190 -56 c0
-5 -5 -10 -11 -10 -5 0 -7 5 -4 10 3 6 8 10 11 10 2 0 4 -4 4 -10z m-60 -22
c0 6 4 12 8 12 5 0 9 -6 9 -13 0 -7 -12 -13 -28 -12 -21 0 -25 3 -17 13 9 11
13 11 19 0 7 -10 9 -10 9 0z m-224 -120 c4 -6 3 -8 -3 -5 -11 7 -28 -20 -24
-36 1 -5 -2 -6 -7 -3 -13 8 -52 -23 -53 -42 0 -10 -3 -12 -6 -5 -4 12 30 65
41 64 3 -1 5 1 4 4 -2 3 31 33 39 35 1 0 5 -5 9 -12z m-108 -100 c-2 -6 -10
-13 -16 -14 -7 -1 -8 0 -2 3 5 2 8 9 4 14 -3 5 0 9 6 9 7 0 10 -5 8 -12z m-18
-48 c-6 -12 -8 -31 -4 -43 5 -17 4 -19 -6 -10 -14 13 -5 73 11 73 6 0 5 -8 -1
-20z m420 -401 c0 -15 -18 -19 -23 -6 -3 8 1 14 9 14 8 0 14 -4 14 -8z m56
-31 c2 1 4 0 4 -3 0 -27 -2 -29 -13 -14 -12 16 -18 19 -37 19 -5 0 -7 7 -3 15
5 14 8 14 25 -2 11 -10 22 -17 24 -15z"/>
<path d="M3896 1807 c3 -10 9 -15 12 -12 3 3 0 11 -7 18 -10 9 -11 8 -5 -6z"/>
<path d="M3912 1665 c0 -16 2 -22 5 -12 2 9 2 23 0 30 -3 6 -5 -1 -5 -18z"/>
<path d="M866 1138 c3 -5 10 -6 15 -3 13 9 11 12 -6 12 -8 0 -12 -4 -9 -9z"/>
<path d="M1665 1120 c-10 -17 5 -33 19 -21 7 6 15 8 18 5 3 -2 8 2 11 11 5 11
0 15 -18 15 -13 0 -27 -4 -30 -10z"/>
<path d="M1449 993 c-13 -16 -12 -17 4 -4 16 13 21 21 13 21 -2 0 -10 -8 -17
-17z"/>
<path d="M416 978 c3 -5 10 -6 15 -3 13 9 11 12 -6 12 -8 0 -12 -4 -9 -9z"/>
<path d="M1422 850 c0 -19 2 -27 5 -17 2 9 2 25 0 35 -3 9 -5 1 -5 -18z"/>
<path d="M1470 735 c0 -8 7 -20 16 -27 8 -7 23 -21 32 -30 20 -22 32 -23 32
-3 0 8 -6 14 -12 13 -7 -2 -12 3 -10 10 1 8 -1 11 -6 8 -10 -6 -43 30 -35 38
4 3 1 6 -5 6 -7 0 -12 -7 -12 -15z"/>
<path d="M1040 352 c0 -6 8 -13 18 -15 13 -4 11 -5 -5 -6 -13 0 -23 -6 -23
-12 0 -5 -4 -7 -10 -4 -5 3 -10 2 -10 -3 0 -9 66 -32 94 -32 10 0 15 -4 12 -9
-3 -5 10 -12 29 -15 19 -4 35 -11 35 -16 0 -4 23 -11 51 -15 35 -5 47 -10 38
-16 -10 -6 -2 -9 22 -9 29 0 38 4 42 22 7 26 -19 55 -55 62 -78 16 -94 20 -98
27 -4 5 -20 12 -38 15 -25 5 -32 3 -32 -10 0 -18 -36 -22 -60 -6 -11 7 -8 10
16 10 17 0 37 7 44 15 10 12 9 15 -6 15 -11 0 -29 3 -41 6 -13 4 -23 2 -23 -4z
m181 -85 c4 -5 11 -7 16 -4 11 7 63 -14 63 -25 0 -9 -42 -1 -49 9 -3 5 -17 9
-31 11 -13 1 -27 8 -31 14 -4 6 -14 8 -24 5 -9 -4 -14 -3 -10 3 3 6 1 10 -4
10 -6 0 -11 -6 -11 -12 0 -9 -3 -8 -9 2 -6 8 -8 17 -5 21 5 8 86 -21 95 -34z"/>
<path d="M2124 348 c-8 -12 2 -21 28 -25 12 -2 25 -7 28 -12 3 -5 24 -14 48
-21 23 -7 42 -17 42 -21 0 -4 18 -10 40 -14 22 -4 40 -11 40 -16 0 -5 18 -12
40 -15 22 -4 37 -10 34 -15 -9 -15 26 -10 42 5 19 19 18 46 -2 46 -8 0 -13 4
-10 8 4 8 -77 32 -105 32 -26 0 7 -20 56 -35 41 -11 53 -19 48 -30 -4 -11 -9
-13 -18 -5 -6 5 -15 7 -18 3 -4 -3 -7 -1 -7 6 0 8 -6 11 -16 7 -10 -4 -13 -2
-8 6 5 8 1 9 -12 4 -10 -4 -15 -4 -11 0 14 14 -26 32 -54 24 -25 -8 -27 -7
-17 9 6 10 19 16 28 14 10 -3 20 0 24 5 3 5 -12 12 -34 16 -22 3 -40 10 -40
16 0 5 -16 12 -36 16 -27 5 -38 2 -50 -12 -9 -11 -13 -14 -10 -8 7 14 -42 25
-50 12z m116 -15 c8 -1 20 -9 26 -17 6 -9 15 -12 19 -8 5 4 5 1 1 -6 -6 -10
-11 -10 -22 -1 -8 6 -14 8 -14 3 0 -4 -5 -3 -11 3 -6 6 -17 9 -24 7 -7 -3 -16
-1 -20 5 -9 15 4 33 18 24 7 -4 19 -8 27 -10z"/>
<path d="M4554 180 c0 -58 1 -81 3 -53 2 29 2 77 0 106 -2 28 -3 5 -3 -53z"/>
</g>
</svg>
