<svg version="1.0" xmlns="http://www.w3.org/2000/svg" width="268.000000pt" height="254.000000pt" viewBox="0 0 268.000000 254.000000" preserveAspectRatio="xMidYMid meet" style="width: 163.25px; height: auto;"> <g transform="translate(0.000000,254.000000) scale(0.100000,-0.100000)" fill="#000000" stroke="none" class=""> <path d="M1110 2211 c0 -5 5 -13 10 -16 6 -3 10 -2 10 4 0 5 -4 13 -10 16 -5 3 -10 2 -10 -4z"></path> <path d="M911 2154 c0 -11 3 -14 6 -6 3 7 2 16 -1 19 -3 4 -6 -2 -5 -13z"></path> <path d="M1082 2148 c-7 -7 -12 -27 -12 -45 0 -31 2 -32 20 -21 13 9 20 24 20 45 0 35 -8 41 -28 21z"></path> <path d="M1140 2129 c0 -5 5 -7 10 -4 6 3 10 8 10 11 0 2 -4 4 -10 4 -5 0 -10 -5 -10 -11z"></path> <path d="M838 2106 c-3 -12 -2 -30 1 -38 9 -25 44 4 39 33 -4 30 -35 34 -40 5z"></path> <path d="M1110 2049 c0 -16 7 -62 16 -101 16 -68 15 -132 -1 -171 -7 -17 -6 -18 14 -5 21 12 22 19 18 98 -4 91 -27 210 -39 210 -5 0 -8 -14 -8 -31z"></path> <path d="M888 2054 c-13 -12 -9 -109 5 -150 8 -22 14 -79 14 -127 1 -93 9 -121 19 -69 4 18 9 32 13 32 4 0 8 11 9 25 1 14 -3 25 -8 25 -6 0 -10 28 -10 61 0 34 -4 78 -10 98 -5 20 -13 53 -17 74 -4 21 -11 35 -15 31z"></path> <path d="M1047 2053 c-7 -15 -7 -118 0 -148 7 -28 8 -27 14 20 11 73 10 135 0 135 -6 0 -12 -3 -14 -7z"></path> <path d="M815 2013 c-4 -21 -11 -51 -16 -68 -12 -42 -17 -195 -6 -227 9 -28 45 -43 78 -33 30 10 12 25 -29 25 l-37 0 3 102 c2 57 7 105 12 108 13 8 23 117 12 124 -7 4 -14 -9 -17 -31z"></path> <path d="M2010 2019 c0 -5 5 -7 10 -4 6 3 10 8 10 11 0 2 -4 4 -10 4 -5 0 -10 -5 -10 -11z"></path> <path d="M1773 2003 c-7 -2 -13 -22 -13 -43 0 -24 -5 -40 -15 -44 -11 -4 -15 -21 -15 -66 0 -33 -4 -60 -10 -60 -15 0 -12 -152 3 -171 7 -9 21 -18 32 -21 17 -3 20 -12 20 -56 0 -49 2 -52 25 -52 19 0 21 3 12 12 -7 7 -12 31 -12 55 0 38 3 43 23 43 14 0 26 10 35 27 14 31 17 123 3 123 -10 0 -30 72 -33 124 -2 23 -9 41 -17 44 -20 7 -8 -110 19 -181 19 -49 20 -63 10 -87 -11 -26 -16 -29 -53 -27 -37 2 -42 5 -49 34 -6 22 -3 55 7 98 8 37 15 89 15 117 0 41 3 51 20 55 16 4 20 14 20 44 0 39 -3 42 -27 32z"></path> <path d="M1921 1914 c0 -11 3 -14 6 -6 3 7 2 16 -1 19 -3 4 -6 -2 -5 -13z"></path> <path d="M1029 1883 c-4 -12 -5 -24 -2 -27 11 -11 62 -126 53 -121 -6 3 -10 -5 -10 -19 0 -30 8 -33 26 -8 16 20 18 72 4 72 -5 0 -10 9 -10 20 0 11 -4 20 -9 20 -5 0 -13 9 -16 20 -4 11 -10 18 -15 15 -5 -3 -10 7 -12 22 -3 26 -4 26 -9 6z"></path> <path d="M1987 1893 c-4 -3 -7 -15 -7 -25 0 -10 -9 -38 -20 -60 -12 -26 -20 -62 -20 -94 0 -33 -5 -54 -12 -57 -10 -3 -10 -7 0 -19 10 -13 10 -17 -1 -21 -16 -6 -15 -79 1 -85 7 -2 12 -10 12 -19 0 -17 22 -13 28 5 2 7 -3 12 -12 12 -17 0 -23 54 -8 64 5 3 10 24 11 48 1 24 4 57 7 73 3 17 8 51 11 78 6 54 33 68 33 18 0 -17 5 -33 10 -36 6 -3 10 -24 10 -45 0 -21 5 -40 11 -42 17 -6 16 -147 -1 -159 -24 -15 -35 -4 -32 30 3 24 0 32 -10 29 -8 -3 -14 -22 -15 -46 -1 -41 0 -42 31 -42 37 0 66 26 66 58 0 12 5 22 10 22 6 0 10 7 10 15 0 8 -4 15 -10 15 -5 0 -10 18 -10 39 0 22 -4 42 -9 45 -4 3 -11 28 -15 56 -4 27 -11 50 -16 50 -6 0 -10 11 -10 24 0 50 -24 89 -43 69z" class=""></path>  <path d="M1220 1814 c1 -21 18 -32 60 -37 25 -3 54 -7 65 -10 11 -3 32 -6 48 -6 48 -2 32 -28 -20 -34 -46 -5 -98 -15 -193 -36 -25 -5 -58 -13 -75 -16 -69 -15 -131 -39 -153 -59 -35 -31 -55 -73 -43 -89 48 -59 86 -82 154 -94 15 -3 30 -9 33 -14 3 -5 20 -9 39 -9 19 0 37 -4 40 -10 3 -5 21 -10 40 -10 19 0 37 -4 40 -10 3 -5 16 -10 29 -10 29 0 126 -49 126 -63 -1 -22 -70 -57 -111 -57 -21 0 -39 -4 -39 -10 0 -5 -20 -10 -44 -10 -25 0 -48 -4 -51 -10 -3 -5 -23 -10 -44 -10 -21 0 -52 -7 -67 -15 -16 -8 -46 -15 -66 -15 -21 0 -38 -4 -38 -10 0 -5 -20 -10 -45 -10 -25 0 -53 -4 -63 -9 -9 -4 -45 -21 -79 -37 -35 -16 -63 -32 -63 -36 0 -5 -6 -8 -13 -8 -20 0 -83 -71 -91 -103 -18 -72 33 -145 143 -207 34 -19 68 -41 76 -47 7 -7 20 -13 28 -13 18 0 80 -30 90 -44 5 -8 10 -6 17 4 15 23 12 40 -7 40 -20 0 -126 51 -131 63 -2 4 -11 7 -19 7 -9 0 -31 11 -49 25 -18 14 -36 25 -39 25 -4 0 -23 17 -41 37 -45 49 -48 108 -6 150 31 32 106 83 122 83 6 0 18 4 28 9 28 14 84 29 135 37 26 3 50 10 53 15 3 5 20 9 39 9 19 0 37 5 40 10 3 5 28 10 56 10 27 0 49 4 49 8 0 8 79 27 153 39 20 3 37 9 37 14 0 5 7 9 16 9 18 0 54 36 54 55 0 28 -74 85 -110 85 -11 0 -28 4 -38 9 -27 14 -83 30 -130 37 -23 4 -45 11 -48 15 -3 5 -21 9 -40 9 -19 0 -34 5 -34 10 0 6 -10 10 -23 10 -32 0 -80 51 -71 76 9 25 55 63 77 64 9 0 25 4 35 9 23 13 134 36 150 33 8 -2 21 3 30 10 10 8 42 15 72 17 30 1 57 6 58 12 2 5 19 9 38 9 19 0 34 5 34 10 0 6 9 10 20 10 11 0 20 4 20 9 0 12 -57 41 -81 41 -10 0 -20 4 -23 9 -3 5 -29 11 -58 14 -29 3 -63 8 -75 12 -13 4 -23 3 -23 -1z" class="" stroke-width="1"></path> <path d="M852 1801 c-19 -11 -11 -45 11 -49 13 -3 17 3 17 27 0 32 -6 37 -28 22z"></path> <path d="M990 1801 c0 -5 5 -13 10 -16 6 -3 10 -2 10 4 0 5 -4 13 -10 16 -5 3 -10 2 -10 -4z"></path> <path d="M1500 1770 c0 -5 7 -10 16 -10 8 0 12 5 9 10 -3 6 -10 10 -16 10 -5 0 -9 -4 -9 -10z" class=""></path> <path d="M1645 1750 c-3 -5 -1 -10 4 -10 6 0 11 5 11 10 0 6 -2 10 -4 10 -3 0 -8 -4 -11 -10z"></path> <path d="M1779 1703 c-1 -10 0 -22 1 -28 1 -5 3 -16 3 -22 0 -7 4 -13 9 -13 4 0 8 18 8 40 0 38 -19 58 -21 23z"></path> <path d="M1620 1700 c0 -6 -26 -10 -59 -10 -33 0 -62 -4 -65 -9 -3 -5 -26 -12 -51 -15 -25 -4 -45 -11 -45 -17 0 -5 -9 -9 -21 -9 -22 0 -79 -48 -79 -66 0 -25 107 -74 162 -74 15 0 30 -4 33 -10 3 -5 26 -10 51 -10 24 0 44 -4 44 -10 0 -5 20 -10 44 -10 25 0 47 -4 50 -9 4 -5 25 -12 48 -16 42 -7 52 -11 95 -33 13 -7 30 -12 38 -12 8 0 15 -3 15 -7 0 -5 14 -17 30 -28 26 -18 30 -26 30 -67 0 -27 -4 -48 -10 -48 -5 0 -10 -7 -10 -15 0 -17 -79 -65 -108 -65 -12 0 -22 -4 -22 -10 0 -5 -11 -10 -25 -10 -13 0 -42 -6 -62 -14 -74 -26 -110 -36 -131 -36 -12 0 -22 -4 -22 -10 0 -5 -13 -10 -30 -10 -16 0 -30 -4 -30 -10 0 -5 -9 -10 -19 -10 -11 0 -36 -16 -56 -36 -33 -32 -37 -40 -32 -71 6 -37 50 -83 79 -83 9 0 19 -4 22 -8 3 -5 33 -17 68 -26 35 -10 72 -22 83 -26 11 -5 31 -11 45 -14 14 -3 39 -8 55 -11 17 -4 39 -10 50 -15 38 -15 127 -40 146 -40 10 0 21 -4 24 -10 3 -5 21 -10 40 -10 19 0 37 -4 40 -10 3 -5 17 -10 30 -10 13 0 28 -7 33 -15 11 -21 42 -9 42 16 0 13 -7 19 -22 19 -13 1 -34 7 -48 15 -14 8 -37 14 -52 15 -15 0 -30 4 -33 10 -3 5 -19 10 -35 10 -16 0 -32 5 -35 10 -3 5 -21 10 -39 10 -18 0 -36 3 -40 7 -4 4 -28 13 -54 20 -127 36 -200 55 -235 62 -20 5 -59 22 -85 38 -60 37 -68 71 -24 102 17 12 37 21 46 21 9 0 16 5 16 10 0 6 8 10 18 10 9 0 30 7 46 15 15 8 39 15 52 15 12 0 26 5 29 10 3 6 24 10 46 10 21 0 39 5 39 10 0 6 13 10 28 10 15 0 33 5 39 11 7 7 24 13 40 15 15 1 29 8 31 13 2 6 15 11 28 11 13 0 24 4 24 9 0 5 6 16 13 23 53 54 58 88 23 150 -18 33 -40 51 -92 80 -38 20 -83 37 -99 37 -17 1 -35 5 -40 10 -6 5 -28 11 -50 14 -22 3 -69 13 -105 22 -36 10 -82 19 -103 22 -20 3 -40 9 -43 14 -3 5 -18 9 -33 9 -29 0 -51 16 -51 37 0 7 7 13 15 13 8 0 15 5 15 10 0 6 11 10 24 10 14 0 28 5 31 10 3 6 26 10 50 10 24 0 46 4 49 9 3 4 32 11 65 14 85 7 135 47 59 47 -15 0 -28 -4 -28 -10z" class=""></path> <path d="M956 1691 c-4 -7 -5 -15 -2 -18 9 -9 19 4 14 18 -4 11 -6 11 -12 0z"></path> <path d="M849 1661 c9 -6 11 -15 6 -27 -5 -11 -9 -36 -10 -56 -1 -36 0 -37 16 -19 31 33 20 111 -16 111 -5 0 -4 -4 4 -9z"></path> <path d="M1206 1593 c-6 -14 -5 -15 5 -6 7 7 10 15 7 18 -3 3 -9 -2 -12 -12z"></path> <path d="M1648 1603 c6 -2 18 -2 25 0 6 3 1 5 -13 5 -14 0 -19 -2 -12 -5z"></path>  <path d="M1251 1574 c0 -11 3 -14 6 -6 3 7 2 16 -1 19 -3 4 -6 -2 -5 -13z"></path> <path d="M1448 1583 c7 -3 16 -2 19 1 4 3 -2 6 -13 5 -11 0 -14 -3 -6 -6z"></path> <path d="M1538 1563 c6 -2 18 -2 25 0 6 3 1 5 -13 5 -14 0 -19 -2 -12 -5z"></path> <path d="M980 1539 c0 -5 5 -7 10 -4 6 3 10 8 10 11 0 2 -4 4 -10 4 -5 0 -10 -5 -10 -11z"></path>    <path d="M1989 1490 c-1 -3 -2 -25 -4 -50 -4 -57 3 -86 17 -72 13 13 12 102 -2 116 -5 5 -10 8 -11 6z"></path>  <path d="M1305 1450 c3 -5 8 -10 11 -10 2 0 4 5 4 10 0 6 -5 10 -11 10 -5 0 -7 -4 -4 -10z" class=""></path> <path d="M1915 1450 c-3 -5 1 -10 9 -10 9 0 16 5 16 10 0 6 -4 10 -9 10 -6 0 -13 -4 -16 -10z"></path> <path d="M1443 1443 c9 -2 23 -2 30 0 6 3 -1 5 -18 5 -16 0 -22 -2 -12 -5z"></path> <path d="M1530 1435 c0 -8 4 -15 9 -15 5 0 17 -7 25 -16 9 -9 27 -14 43 -12 l28 4 -25 11 c-14 6 -32 18 -39 27 -17 20 -41 21 -41 1z"></path> <path d="M2060 1440 c0 -5 5 -10 10 -10 6 0 10 5 10 10 0 6 -4 10 -10 10 -5 0 -10 -4 -10 -10z"></path> <path d="M845 1420 c3 -5 8 -10 11 -10 2 0 4 5 4 10 0 6 -5 10 -11 10 -5 0 -7 -4 -4 -10z" stroke-width="1" class=""></path> <path d="M1365 1420 c4 -6 11 -8 16 -5 14 9 11 15 -7 15 -8 0 -12 -5 -9 -10z" class=""></path>   <path d="M1495 1400 c-3 -5 1 -10 9 -10 9 0 16 5 16 10 0 6 -4 10 -9 10 -6 0 -13 -4 -16 -10z"></path>   <path d="M1634 1375 c-7 -18 3 -35 20 -35 8 0 13 -8 12 -17 -1 -19 -50 -73 -66 -73 -5 0 -10 -4 -10 -9 0 -5 -8 -12 -17 -15 -42 -16 -61 -31 -60 -48 2 -24 10 -23 44 5 15 13 43 32 61 43 18 10 42 33 53 51 20 32 20 32 -1 72 -22 45 -28 49 -36 26z" class=""></path> <path d="M2061 1374 c0 -11 3 -14 6 -6 3 7 2 16 -1 19 -3 4 -6 -2 -5 -13z"></path> <path d="M1540 1360 c0 -6 7 -10 15 -10 8 0 15 2 15 4 0 2 -7 6 -15 10 -8 3 -15 1 -15 -4z"></path> <path d="M965 1350 c-3 -5 -2 -10 4 -10 5 0 13 5 16 10 3 6 2 10 -4 10 -5 0 -13 -4 -16 -10z" stroke-width="1"></path> <path d="M1060 1349 c0 -5 5 -7 10 -4 6 3 10 8 10 11 0 2 -4 4 -10 4 -5 0 -10 -5 -10 -11z" stroke-width="1"></path> <path d="M1830 1346 c0 -2 7 -7 16 -10 8 -3 12 -2 9 4 -6 10 -25 14 -25 6z"></path> <path d="M910 1329 c0 -5 5 -7 10 -4 6 3 10 8 10 11 0 2 -4 4 -10 4 -5 0 -10 -5 -10 -11z" stroke-width="1"></path> <path d="M1580 1325 c0 -8 2 -15 4 -15 2 0 6 7 10 15 3 8 1 15 -4 15 -6 0 -10 -7 -10 -15z"></path> <path d="M1495 1290 c-4 -6 3 -10 14 -10 25 0 27 6 6 13 -8 4 -17 2 -20 -3z"></path> <path d="M1550 1285 c0 -8 5 -15 10 -15 6 0 10 7 10 15 0 8 -4 15 -10 15 -5 0 -10 -7 -10 -15z"></path>  <path d="M1040 1260 c0 -5 7 -7 15 -4 8 4 15 8 15 10 0 2 -7 4 -15 4 -8 0 -15 -4 -15 -10z" stroke-width="1"></path>  <path d="M1450 1240 c0 -5 7 -10 15 -10 8 0 15 5 15 10 0 6 -7 10 -15 10 -8 0 -15 -4 -15 -10z"></path> <path d="M1510 1240 c0 -5 7 -7 15 -4 8 4 15 8 15 10 0 2 -7 4 -15 4 -8 0 -15 -4 -15 -10z"></path> <path d="M1410 1199 c0 -5 5 -7 10 -4 6 3 10 8 10 11 0 2 -4 4 -10 4 -5 0 -10 -5 -10 -11z"></path> <path d="M1436 1164 c-12 -31 -2 -32 34 -4 l25 20 -26 0 c-15 0 -29 -7 -33 -16z"></path> <path d="M1298 1141 c-26 -9 -50 -19 -54 -23 -4 -5 -22 -8 -41 -8 -31 0 -32 -2 -21 -20 8 -13 16 -16 22 -10 6 6 18 10 28 10 10 0 18 5 18 10 0 6 11 10 24 10 31 0 78 17 89 33 6 8 7 6 3 -5 -3 -10 -1 -20 4 -23 6 -4 10 1 10 9 0 9 9 16 20 16 11 0 20 5 20 10 0 15 -68 10 -122 -9z" class=""></path> <path d="M1970 1150 c0 -5 5 -10 11 -10 5 0 7 5 4 10 -3 6 -8 10 -11 10 -2 0 -4 -4 -4 -10z"></path>  <path d="M1085 1120 c3 -5 12 -7 20 -3 21 7 19 13 -6 13 -11 0 -18 -4 -14 -10z"></path> <path d="M1390 1080 c0 -5 5 -10 10 -10 6 0 10 5 10 10 0 6 -4 10 -10 10 -5 0 -10 -4 -10 -10z"></path> <path d="M1052 1041 c-51 -38 -54 -42 -55 -98 0 -36 5 -50 21 -64 12 -9 22 -22 22 -27 0 -5 11 -13 25 -16 14 -4 25 -11 25 -16 0 -6 5 -10 10 -10 24 0 7 40 -25 60 -19 12 -35 28 -35 36 0 8 -4 14 -10 14 -18 0 -10 45 13 71 12 14 39 34 59 44 21 9 35 21 32 26 -10 17 -41 9 -82 -20z"></path> <path d="M736 1032 c-2 -4 4 -9 15 -9 10 -1 19 2 19 8 0 11 -27 12 -34 1z"></path> <path d="M790 1009 c0 -5 5 -7 10 -4 6 3 10 8 10 11 0 2 -4 4 -10 4 -5 0 -10 -5 -10 -11z"></path> <path d="M1665 1010 c3 -5 8 -10 11 -10 2 0 4 5 4 10 0 6 -5 10 -11 10 -5 0 -7 -4 -4 -10z"></path>  <path d="M755 989 c-9 -14 -2 -20 14 -10 8 6 9 11 3 15 -6 3 -14 1 -17 -5z"></path> <path d="M1485 990 c-3 -5 1 -10 10 -10 9 0 13 5 10 10 -3 6 -8 10 -10 10 -2 0 -7 -4 -10 -10z"></path> <path d="M1560 990 c0 -5 5 -10 10 -10 6 0 10 5 10 10 0 6 -4 10 -10 10 -5 0 -10 -4 -10 -10z"></path> <path d="M1530 950 c0 -5 5 -10 10 -10 6 0 10 5 10 10 0 6 -4 10 -10 10 -5 0 -10 -4 -10 -10z"></path> <path d="M1155 924 c9 -9 19 -13 23 -10 3 4 0 11 -8 16 -24 15 -33 11 -15 -6z"></path>  <path d="M1075 920 c3 -5 13 -10 21 -10 8 0 14 5 14 10 0 6 -9 10 -21 10 -11 0 -17 -4 -14 -10z"></path> <path d="M1490 920 c0 -5 7 -10 15 -10 8 0 15 5 15 10 0 6 -7 10 -15 10 -8 0 -15 -4 -15 -10z" class=""></path> <path d="M1583 913 c9 -2 17 -9 17 -14 0 -5 8 -9 18 -9 10 0 23 -5 30 -12 7 -7 12 -9 12 -5 0 11 -63 47 -80 46 -11 -1 -10 -3 3 -6z"></path> <path d="M746 901 c-4 -5 -2 -12 3 -15 5 -4 12 -2 15 3 4 5 2 12 -3 15 -5 4 -12 2 -15 -3z"></path> <path d="M1708 893 c7 -3 16 -2 19 1 4 3 -2 6 -13 5 -11 0 -14 -3 -6 -6z"></path> <path d="M1367 877 c-3 -8 1 -14 8 -14 7 0 11 6 8 14 -3 7 -6 13 -8 13 -2 0 -5 -6 -8 -13z"></path> <path d="M700 872 c0 -5 7 -13 16 -16 10 -4 14 -1 12 6 -5 15 -28 23 -28 10z"></path> <path d="M1165 870 c3 -5 8 -10 11 -10 2 0 4 5 4 10 0 6 -5 10 -11 10 -5 0 -7 -4 -4 -10z"></path> <path d="M995 830 c-3 -5 1 -10 10 -10 9 0 13 5 10 10 -3 6 -8 10 -10 10 -2 0 -7 -4 -10 -10z"></path> <path d="M1136 833 c-13 -13 -5 -39 17 -49 111 -55 204 -108 215 -122 11 -15 14 -15 22 -2 15 24 12 40 -9 40 -11 0 -22 4 -26 9 -7 13 -64 41 -82 41 -7 0 -13 5 -13 10 0 6 -9 10 -20 10 -11 0 -20 5 -20 10 0 6 -9 10 -20 10 -11 0 -20 6 -20 13 0 14 -35 39 -44 30z" class=""></path> <path d="M1345 830 c-3 -5 -1 -10 4 -10 6 0 11 5 11 10 0 6 -2 10 -4 10 -3 0 -8 -4 -11 -10z"></path>  <path d="M1027 803 c-4 -3 -7 -11 -7 -17 0 -6 5 -5 12 2 6 6 9 14 7 17 -3 3 -9 2 -12 -2z"></path> <path d="M1448 803 c7 -3 16 -2 19 1 4 3 -2 6 -13 5 -11 0 -14 -3 -6 -6z"></path>  <path d="M2080 761 c0 -5 9 -7 20 -4 11 3 20 7 20 9 0 2 -9 4 -20 4 -11 0 -20 -4 -20 -9z"></path> <path d="M955 750 c4 -6 11 -8 16 -5 14 9 11 15 -7 15 -8 0 -12 -5 -9 -10z"></path> <path d="M980 715 c0 -8 5 -15 10 -15 6 0 10 7 10 15 0 8 -4 15 -10 15 -5 0 -10 -7 -10 -15z"></path>  <path d="M1770 710 c8 -5 20 -10 25 -10 6 0 3 5 -5 10 -8 5 -19 10 -25 10 -5 0 -3 -5 5 -10z"></path> <path d="M745 690 c3 -5 8 -10 11 -10 2 0 4 5 4 10 0 6 -5 10 -11 10 -5 0 -7 -4 -4 -10z"></path> <path d="M1185 690 c3 -5 8 -10 11 -10 2 0 4 5 4 10 0 6 -5 10 -11 10 -5 0 -7 -4 -4 -10z"></path> <path d="M796 671 c-4 -5 -2 -12 3 -15 5 -4 12 -2 15 3 4 5 2 12 -3 15 -5 4 -12 2 -15 -3z" class=""></path> <path d="M1818 663 c7 -3 16 -2 19 1 4 3 -2 6 -13 5 -11 0 -14 -3 -6 -6z"></path> <path d="M716 647 c3 -10 9 -15 12 -12 3 3 0 11 -7 18 -10 9 -11 8 -5 -6z"></path> <path d="M987 653 c-4 -3 -7 -13 -7 -22 1 -13 3 -13 11 2 11 19 8 33 -4 20z"></path> <path d="M2185 650 c-3 -5 1 -10 10 -10 9 0 13 5 10 10 -3 6 -8 10 -10 10 -2 0 -7 -4 -10 -10z"></path> <path d="M1948 643 c6 -2 18 -2 25 0 6 3 1 5 -13 5 -14 0 -19 -2 -12 -5z"></path> <path d="M1535 630 c-3 -5 -1 -10 4 -10 6 0 11 5 11 10 0 6 -2 10 -4 10 -3 0 -8 -4 -11 -10z"></path> <path d="M870 619 c0 -5 5 -7 10 -4 6 3 10 8 10 11 0 2 -4 4 -10 4 -5 0 -10 -5 -10 -11z"></path> <path d="M2020 620 c0 -5 9 -10 20 -10 11 0 20 5 20 10 0 6 -9 10 -20 10 -11 0 -20 -4 -20 -10z"></path> <path d="M2100 620 c0 -5 7 -10 16 -10 8 0 12 5 9 10 -3 6 -10 10 -16 10 -5 0 -9 -4 -9 -10z"></path> <path d="M904 609 c-3 -6 -1 -16 5 -22 8 -8 11 -5 11 11 0 24 -5 28 -16 11z"></path> <path d="M1468 593 c6 -2 18 -2 25 0 6 3 1 5 -13 5 -14 0 -19 -2 -12 -5z"></path> <path d="M1968 593 c7 -3 16 -2 19 1 4 3 -2 6 -13 5 -11 0 -14 -3 -6 -6z"></path> </g> </svg>