<svg version="1.0" xmlns="http://www.w3.org/2000/svg" width="262.000000pt" height="164.000000pt" viewBox="0 0 262.000000 164.000000" preserveAspectRatio="xMidYMid meet" style="width: 140.511px; height: auto;"> <g transform="translate(0.000000,164.000000) scale(0.100000,-0.100000)" fill="#000000" stroke="none" class=""> <path d="M1331 1404 c-12 -15 -21 -33 -21 -41 0 -9 -9 -14 -27 -12 -16 1 -41 1 -56 1 -25 -2 -27 -5 -22 -24 11 -36 53 -87 86 -104 34 -17 56 -8 24 10 -31 17 -85 76 -85 91 0 18 60 9 76 -11 15 -19 27 -18 20 3 -9 22 12 83 29 83 18 0 36 -56 28 -89 l-6 -26 24 21 c28 25 75 38 84 25 8 -14 -69 -91 -90 -91 -14 0 -16 -3 -8 -11 25 -25 93 27 119 91 l14 32 -55 -4 c-30 -1 -55 1 -55 6 0 13 -43 76 -52 76 -4 0 -16 -12 -27 -26z"></path>  <path d="M1125 1276 c-86 -27 -170 -82 -250 -161 -44 -44 -87 -93 -95 -110 -8 -16 -18 -32 -21 -35 -3 -3 -15 -32 -27 -65 -41 -110 -48 -176 -42 -375 7 -222 12 -224 10 -5 -1 201 11 286 55 387 52 118 120 199 229 270 22 15 46 32 52 37 6 5 43 20 82 33 39 12 72 26 72 31 0 10 -18 8 -65 -7z" class=""></path> <path d="M1520 1287 c0 -3 33 -18 73 -32 108 -41 176 -86 255 -170 75 -78 104 -127 142 -235 20 -57 24 -90 28 -267 2 -112 7 -203 11 -203 3 0 6 87 5 193 -1 216 -10 263 -70 384 -63 125 -180 235 -315 297 -53 24 -129 43 -129 33z" class=""></path>    <path d="M1345 1130 c-3 -14 -2 -37 3 -50 9 -25 9 -25 16 7 4 18 3 40 -3 50 -8 16 -10 15 -16 -7z"></path>       <path d="M1008 873 c-26 -4 -28 -8 -28 -48 0 -41 -3 -45 -27 -51 -16 -3 -34 -7 -40 -10 -10 -2 -13 -59 -13 -240 0 -163 3 -235 11 -232 7 2 10 75 9 226 l-1 222 26 10 c15 6 28 10 30 10 3 0 6 -82 7 -182 l3 -182 60 3 c33 1 87 -5 119 -14 64 -17 156 -63 156 -77 0 -6 -3 -8 -7 -6 -109 56 -219 73 -308 48 -45 -13 -74 -35 -61 -47 4 -4 10 -2 14 4 15 25 102 45 166 38 102 -10 125 -18 210 -79 27 -19 27 -19 54 7 80 75 269 94 354 35 14 -10 34 -18 45 -18 17 0 18 12 16 232 -2 128 -3 236 -3 241 0 4 -9 7 -19 7 -40 0 -51 11 -51 50 0 47 -12 56 -76 59 -88 4 -219 -39 -272 -89 l-22 -21 -43 31 c-23 16 -66 39 -95 50 -52 20 -164 32 -214 23z m144 -24 c61 -13 149 -52 172 -78 14 -15 17 -53 19 -235 3 -174 1 -216 -10 -216 -7 0 -13 4 -13 8 0 12 -84 57 -144 77 -31 11 -71 15 -112 13 l-64 -3 0 217 0 217 23 4 c42 8 76 7 129 -4z m556 -211 l2 -215 -82 -5 c-68 -4 -96 -11 -153 -38 -38 -18 -74 -39 -78 -46 -4 -8 -14 -14 -21 -14 -11 0 -14 40 -12 213 1 241 -1 233 80 274 74 38 133 52 201 50 l60 -3 3 -216z m61 116 c7 5 11 -69 13 -215 2 -121 0 -223 -4 -225 -4 -3 -22 5 -39 18 -25 19 -46 24 -114 27 -97 4 -160 -13 -225 -60 -36 -26 -43 -28 -63 -17 -21 12 -20 13 16 16 20 2 37 7 37 11 0 13 99 62 154 77 28 8 81 14 119 14 l67 0 0 186 c0 162 2 185 15 174 8 -6 19 -9 24 -6z" class=""></path>    <path d="M681 316 c-10 -12 -8 -17 8 -25 21 -12 33 2 23 27 -6 16 -17 15 -31 -2z"></path> <path d="M2010 315 c-10 -12 -9 -16 5 -21 23 -9 40 10 22 25 -11 9 -17 8 -27 -4z"></path>   </g> </svg>